<?xml version="1.0" encoding="UTF-8"?>
<svg id="Layer_1" data-name="Layer 1" xmlns="http://www.w3.org/2000/svg" viewBox="0 0 164 200">
  <defs>
    <style>
      .cls-1 {
        fill: #64c864;
      }

      .cls-2 {
        fill: #28784b;
      }
    </style>
  </defs>
  <g>
    <path class="cls-1" d="M153.63,125.31l-71.69-41.27.1-35.9,81.96,47.19c-1.37,10.41-5.07,20.2-10.37,29.98h0Z"/>
    <path class="cls-2" d="M10.52,125.28c-5.24-9.31-8.9-19.42-10.52-30.02l81.99-47.1.07,35.86L10.52,125.28Z"/>
  </g>
  <g>
    <path class="cls-1" d="M163.89,70.94L82.16,23.96l-.1-23.96c7.35.36,13.92,1.37,21.02,3.1,31.3,9.16,55.41,35.09,60.81,67.84Z"/>
    <path class="cls-2" d="M82.05,23.94L.38,70.91C6.73,31.3,41.09,1.19,81.93.03c0,0,.12,23.91.12,23.91Z"/>
  </g>
  <g>
    <polygon class="cls-2" points="46.1 164.41 23.14 141.97 82.06 108.12 82.05 143.68 46.1 164.41"/>
    <polygon class="cls-1" points="117.99 164.4 81.94 143.67 81.96 108.13 140.94 141.99 117.99 164.4"/>
  </g>
  <g>
    <polygon class="cls-1" points="102.63 179.57 82.11 199.99 82.06 167.57 102.63 179.57"/>
    <polygon class="cls-2" points="81.99 200 61.56 179.38 82.04 167.56 81.99 200"/>
  </g>
</svg>