<?xml version="1.0" encoding="UTF-8"?>
<svg id="Layer_1" data-name="Layer 1" xmlns="http://www.w3.org/2000/svg" viewBox="0 0 1000 130">
  <defs>
    <style>
      /* dark-topbar variant: text = light green / white (matches old logo),
         mark = mid-green duo (#46B175 / #1B7A4F) */
      .cls-1 { fill: #ffffff; }   /* "tour" text */
      .cls-2 { fill: #6ee7b7; }   /* "Libre" text (emerald-300) */
      .cls-3 { fill: #46B175; }   /* mark light band */
      .cls-4 { fill: #1B7A4F; }   /* mark dark band */
    </style>
  </defs>
  <g>
    <path class="cls-2" d="M154.99,41.47h23.28v65.48h41.91v20.84h-65.19V41.47Z"/>
    <path class="cls-2" d="M245.67,41.47h23.28v86.31h-23.28V41.47Z"/>
    <path class="cls-2" d="M377.51,103.37c0,15.04-12.62,24.41-33.21,24.41h-43.26V41.47h43.26c18.75,0,30.63,8.88,30.63,23.06,0,8.26-3.92,14.55-10.78,18,8.33,3.82,13.36,11.47,13.36,20.84ZM323.72,60.21v14.06h20.71c5.15,0,7.96-2.59,7.96-7.03s-2.82-7.03-7.96-7.03h-20.71ZM354.85,100.41c0-5.18-3.43-8.14-9.44-8.14h-21.69v16.28h21.69c6,0,9.44-2.96,9.44-8.14Z"/>
    <path class="cls-2" d="M437.19,99.91h-8.58v27.87h-23.28V41.47h42.52c18.99,0,31.25,12.08,31.25,29.59,0,12.7-6.25,22.07-18.14,26.51l23.4,30.21h-27.2l-19.97-27.87ZM444.3,60.95h-15.93v20.96h15.93c7.72,0,11.89-3.7,11.89-10.48s-4.17-10.48-11.89-10.48Z"/>
    <path class="cls-2" d="M577.12,108.54v19.24h-68.25V41.47h66.54v18.99h-44.11v14.43h41.66v18.25h-41.66v15.41h45.83Z"/>
    <path class="cls-1" d="M670.62,61.44h-25.24v66.34h-23.28V61.44h-25.24v-19.98h73.77v19.98Z"/>
    <path class="cls-1" d="M689.74,84.62c0-27.62,18.5-45.38,47.3-45.38s47.3,17.76,47.3,45.38-18.5,45.38-47.3,45.38-47.3-17.76-47.3-45.38ZM761.05,84.62c0-15.04-9.43-24.78-24.02-24.78s-24.02,9.74-24.02,24.78,9.43,24.78,24.02,24.78,24.02-9.74,24.02-24.78Z"/>
    <path class="cls-1" d="M810.19,89.8v-48.34h23.28v48.34c0,12.33,6,19.48,16.79,19.48s16.79-7.15,16.79-19.48v-48.34h23.28v48.34c0,25.4-14.34,39.83-40.07,39.83s-40.07-14.43-40.07-39.83Z"/>
    <path class="cls-1" d="M952.82,99.91h-8.58v27.87h-23.28V41.47h42.52c18.99,0,31.25,12.08,31.25,29.59,0,12.7-6.25,22.07-18.14,26.51l23.4,30.21h-27.2l-19.97-27.87ZM959.93,60.95h-15.93v20.96h15.93c7.72,0,11.89-3.7,11.89-10.48s-4.17-10.48-11.89-10.48Z"/>
  </g>
  <g>
    <path class="cls-3" d="M98.47,81.45l-45.95-26.83.07-23.33,52.53,30.68c-.88,6.77-3.25,13.13-6.65,19.48Z"/>
    <path class="cls-4" d="M6.75,81.43c-3.36-6.05-5.7-12.62-6.75-19.51l52.56-30.61.04,23.31L6.75,81.43Z"/>
  </g>
  <g>
    <path class="cls-3" d="M105.05,46.11L52.66,15.57l-.07-15.57c4.71.24,8.92.89,13.47,2.01,20.06,5.95,35.51,22.81,38.98,44.1Z"/>
    <path class="cls-4" d="M52.59,15.56L.24,46.09C4.31,20.34,26.33.77,52.51.02l.08,15.54Z"/>
  </g>
  <g>
    <polygon class="cls-4" points="29.55 106.86 14.83 92.28 52.6 70.27 52.59 93.39 29.55 106.86"/>
    <polygon class="cls-3" points="75.63 106.86 52.52 93.38 52.53 70.28 90.34 92.29 75.63 106.86"/>
  </g>
  <g>
    <polygon class="cls-3" points="65.78 116.72 52.63 129.99 52.6 108.92 65.78 116.72"/>
    <polygon class="cls-4" points="52.55 130 39.46 116.6 52.59 108.91 52.55 130"/>
  </g>
</svg>