<svg xmlns="http://www.w3.org/2000/svg" viewBox="0 0 240 320" width="240" height="320" role="img" aria-label="Libretour">
  <defs>
    <clipPath id="pinclip">
      <path d="M 120.0 300.0 C 42.0 208.0 28.0 174.0 28.0 116.0 a 92.0 92.0 0 1 1 184.0 0 C 212.0 174.0 198.0 208.0 120.0 300.0 Z"/>
    </clipPath>
  </defs>
  <g clip-path="url(#pinclip)">
      <path d="M -80.0 8.0 L 120.0 36.0 L 120.0 100.0 L -80.0 72.0 Z" fill="#1B7A4F"/>
      <path d="M 320.0 8.0 L 120.0 36.0 L 120.0 100.0 L 320.0 72.0 Z" fill="#46B175"/>
      <path d="M -80.0 104.0 L 120.0 128.0 L 120.0 158.0 L -80.0 134.0 Z" fill="#1B7A4F"/>
      <path d="M 320.0 104.0 L 120.0 128.0 L 120.0 158.0 L 320.0 134.0 Z" fill="#46B175"/>
      <path d="M -80.0 150.0 L 120.0 172.0 L 120.0 198.0 L -80.0 176.0 Z" fill="#1B7A4F"/>
      <path d="M 320.0 150.0 L 120.0 172.0 L 120.0 198.0 L 320.0 176.0 Z" fill="#46B175"/>
      <path d="M -80.0 190.0 L 120.0 209.0 L 120.0 230.0 L -80.0 211.0 Z" fill="#1B7A4F"/>
      <path d="M 320.0 190.0 L 120.0 209.0 L 120.0 230.0 L 320.0 211.0 Z" fill="#46B175"/>
      <path d="M -80.0 228.0 L 120.0 245.0 L 120.0 261.0 L -80.0 244.0 Z" fill="#1B7A4F"/>
      <path d="M 320.0 228.0 L 120.0 245.0 L 120.0 261.0 L 320.0 244.0 Z" fill="#46B175"/>
  </g>
</svg>
