<svg xmlns="http://www.w3.org/2000/svg" width="2300" height="560" viewBox="0 0 2300 560">
<path d="M 233 444 L 229 444 L 226 447 L 222 448 L 220 450 L 212 454 L 209 457 L 206 457 L 204 460 L 201 460 L 198 463 L 196 463 L 193 466 L 189 467 L 186 470 L 184 470 L 181 473 L 179 473 L 176 476 L 172 477 L 171 479 L 169 479 L 161 484 L 162 489 L 167 494 L 168 494 L 169 496 L 171 497 L 172 499 L 174 500 L 175 502 L 177 503 L 178 505 L 181 507 L 182 509 L 184 510 L 185 512 L 187 513 L 188 515 L 190 516 L 191 518 L 196 523 L 197 523 L 198 525 L 200 526 L 201 528 L 203 529 L 204 531 L 209 536 L 210 536 L 211 538 L 213 539 L 214 541 L 216 542 L 217 544 L 225 552 L 226 552 L 228 555 L 230 555 L 230 551 L 231 550 L 231 447 L 233 446 Z M 1337 345 L 1336 347 L 1336 448 L 1338 452 L 1340 453 L 1344 453 L 1345 454 L 1411 454 L 1414 452 L 1415 450 L 1415 441 L 1414 439 L 1411 437 L 1357 437 L 1355 435 L 1355 411 L 1357 406 L 1394 406 L 1395 405 L 1398 405 L 1402 402 L 1402 395 L 1401 393 L 1395 390 L 1357 390 L 1355 388 L 1355 362 L 1357 358 L 1413 358 L 1415 356 L 1415 346 L 1412 343 L 1341 343 Z M 977 344 L 974 347 L 974 349 L 973 350 L 973 448 L 977 452 L 981 454 L 988 453 L 990 452 L 991 450 L 991 387 L 990 385 L 988 384 L 988 380 L 989 379 L 991 379 L 991 376 L 992 375 L 994 375 L 995 376 L 995 380 L 1000 384 L 1000 386 L 1002 389 L 1013 401 L 1014 404 L 1018 406 L 1019 410 L 1023 412 L 1024 416 L 1030 422 L 1031 425 L 1035 428 L 1037 432 L 1042 436 L 1042 438 L 1044 440 L 1046 440 L 1047 441 L 1048 445 L 1057 453 L 1064 453 L 1066 452 L 1068 447 L 1068 437 L 1067 436 L 1067 346 L 1063 343 L 1055 343 L 1049 348 L 1049 412 L 1048 413 L 1045 413 L 1043 410 L 1038 406 L 1038 404 L 1036 402 L 1034 402 L 1033 401 L 1032 397 L 1028 394 L 1027 391 L 1024 387 L 1022 386 L 1019 380 L 1016 379 L 1014 376 L 1014 374 L 1011 373 L 1009 371 L 1008 367 L 1004 365 L 1003 361 L 999 358 L 996 353 L 991 348 L 990 345 L 986 343 L 979 343 Z M 874 343 L 871 347 L 871 449 L 874 453 L 876 454 L 881 454 L 882 453 L 884 453 L 886 451 L 886 449 L 887 448 L 887 349 L 885 344 L 883 343 Z M 2090 343 L 2089 344 L 2087 344 L 2082 349 L 2079 350 L 2077 354 L 2073 356 L 2071 361 L 2071 365 L 2067 368 L 2067 370 L 2066 371 L 2066 383 L 2065 384 L 2065 392 L 2064 393 L 2064 405 L 2065 406 L 2065 414 L 2066 415 L 2066 425 L 2067 426 L 2067 429 L 2071 433 L 2073 440 L 2076 441 L 2077 442 L 2077 444 L 2079 446 L 2082 447 L 2085 451 L 2094 453 L 2096 455 L 2098 455 L 2099 456 L 2111 456 L 2115 453 L 2122 452 L 2126 450 L 2129 446 L 2131 446 L 2133 444 L 2133 442 L 2138 438 L 2139 433 L 2144 425 L 2144 418 L 2145 417 L 2144 406 L 2143 405 L 2143 403 L 2140 400 L 2138 392 L 2133 388 L 2132 385 L 2128 384 L 2125 380 L 2120 379 L 2119 378 L 2108 377 L 2107 376 L 2101 377 L 2100 378 L 2086 379 L 2085 378 L 2085 372 L 2086 371 L 2087 366 L 2089 364 L 2091 364 L 2097 358 L 2113 358 L 2125 369 L 2134 369 L 2136 368 L 2138 365 L 2138 358 L 2133 354 L 2131 350 L 2129 350 L 2124 345 L 2120 343 L 2109 343 L 2108 342 Z M 2097 393 L 2113 393 L 2124 402 L 2124 404 L 2125 405 L 2125 411 L 2126 412 L 2125 425 L 2124 426 L 2124 429 L 2122 431 L 2119 432 L 2118 435 L 2116 437 L 2111 437 L 2110 438 L 2099 438 L 2098 437 L 2094 437 L 2090 432 L 2086 430 L 2085 421 L 2081 416 L 2081 407 L 2085 404 L 2087 399 L 2089 399 L 2093 397 L 2093 396 Z M 1930 344 L 1927 347 L 1921 350 L 1919 353 L 1914 357 L 1912 362 L 1910 364 L 1910 366 L 1916 373 L 1923 374 L 1927 370 L 1928 367 L 1931 364 L 1936 362 L 1940 358 L 1958 358 L 1960 361 L 1964 363 L 1967 366 L 1967 368 L 1971 371 L 1971 382 L 1967 384 L 1966 388 L 1964 390 L 1960 391 L 1957 395 L 1955 395 L 1949 398 L 1946 402 L 1943 402 L 1939 404 L 1937 407 L 1931 409 L 1929 413 L 1925 414 L 1924 417 L 1922 419 L 1919 420 L 1918 423 L 1913 427 L 1912 431 L 1908 435 L 1908 437 L 1907 438 L 1907 450 L 1908 452 L 1911 454 L 1982 454 L 1984 453 L 1986 450 L 1986 441 L 1985 439 L 1982 437 L 1931 437 L 1930 436 L 1930 434 L 1932 431 L 1939 425 L 1940 423 L 1948 420 L 1948 419 L 1952 416 L 1955 416 L 1959 411 L 1965 410 L 1969 405 L 1973 404 L 1975 401 L 1980 397 L 1981 394 L 1985 391 L 1985 389 L 1986 388 L 1986 379 L 1987 378 L 1987 376 L 1986 375 L 1986 364 L 1985 363 L 1985 361 L 1981 357 L 1977 351 L 1971 348 L 1965 343 L 1944 342 L 1943 343 L 1933 343 L 1932 344 Z M 1774 343 L 1770 345 L 1766 349 L 1763 350 L 1761 352 L 1761 353 L 1755 359 L 1754 364 L 1749 371 L 1749 374 L 1748 375 L 1748 386 L 1747 387 L 1747 410 L 1748 411 L 1748 421 L 1749 422 L 1749 426 L 1750 428 L 1753 430 L 1755 438 L 1757 439 L 1760 442 L 1760 444 L 1764 446 L 1767 450 L 1772 452 L 1776 452 L 1782 456 L 1794 456 L 1798 453 L 1805 452 L 1809 450 L 1812 446 L 1815 445 L 1816 442 L 1820 439 L 1822 433 L 1826 429 L 1828 414 L 1831 408 L 1831 388 L 1830 387 L 1830 385 L 1828 383 L 1826 368 L 1825 366 L 1822 364 L 1820 357 L 1815 353 L 1814 350 L 1810 349 L 1808 346 L 1802 343 L 1792 343 L 1791 342 Z M 1781 358 L 1795 358 L 1802 364 L 1805 364 L 1806 365 L 1808 372 L 1812 376 L 1812 381 L 1813 382 L 1813 416 L 1812 417 L 1812 420 L 1807 426 L 1807 429 L 1803 432 L 1799 437 L 1778 437 L 1776 436 L 1772 431 L 1770 431 L 1769 430 L 1766 420 L 1763 418 L 1763 413 L 1762 412 L 1762 384 L 1763 383 L 1763 379 L 1767 375 L 1769 368 Z M 1615 343 L 1611 345 L 1605 350 L 1603 350 L 1601 354 L 1596 357 L 1596 359 L 1594 361 L 1593 366 L 1599 373 L 1606 373 L 1613 364 L 1618 362 L 1622 358 L 1640 358 L 1645 363 L 1648 364 L 1649 365 L 1649 367 L 1653 370 L 1654 378 L 1653 379 L 1653 382 L 1649 385 L 1648 388 L 1646 390 L 1644 390 L 1639 395 L 1635 397 L 1633 397 L 1629 402 L 1625 402 L 1619 407 L 1614 409 L 1611 413 L 1608 414 L 1606 417 L 1596 426 L 1594 432 L 1592 433 L 1589 439 L 1589 450 L 1594 454 L 1664 454 L 1666 453 L 1668 450 L 1668 440 L 1664 437 L 1613 437 L 1612 436 L 1612 434 L 1618 427 L 1620 427 L 1622 423 L 1630 420 L 1631 418 L 1634 416 L 1639 415 L 1642 411 L 1644 411 L 1648 409 L 1651 405 L 1655 404 L 1659 399 L 1662 398 L 1663 394 L 1665 393 L 1668 389 L 1668 381 L 1669 380 L 1668 363 L 1663 357 L 1662 354 L 1658 350 L 1653 348 L 1649 344 L 1647 344 L 1646 343 L 1638 343 L 1637 342 Z M 1187 343 L 1183 345 L 1180 348 L 1172 351 L 1170 355 L 1167 355 L 1165 359 L 1161 361 L 1159 366 L 1155 370 L 1153 375 L 1153 379 L 1149 384 L 1149 387 L 1148 388 L 1148 409 L 1149 410 L 1149 413 L 1153 418 L 1154 425 L 1156 428 L 1159 430 L 1160 434 L 1162 435 L 1166 440 L 1169 441 L 1172 445 L 1176 446 L 1179 450 L 1181 451 L 1189 452 L 1198 456 L 1203 456 L 1204 457 L 1213 456 L 1221 452 L 1226 452 L 1227 451 L 1229 451 L 1231 450 L 1234 446 L 1239 445 L 1244 440 L 1245 440 L 1251 433 L 1251 431 L 1254 429 L 1256 426 L 1255 419 L 1252 416 L 1246 416 L 1243 419 L 1238 421 L 1237 424 L 1229 432 L 1225 433 L 1222 437 L 1213 437 L 1212 438 L 1198 438 L 1197 437 L 1189 437 L 1187 436 L 1184 432 L 1180 431 L 1179 429 L 1174 425 L 1173 422 L 1168 416 L 1168 412 L 1167 411 L 1167 403 L 1166 402 L 1166 395 L 1167 394 L 1167 386 L 1168 385 L 1168 381 L 1173 375 L 1174 371 L 1176 369 L 1178 369 L 1181 364 L 1189 362 L 1193 358 L 1217 358 L 1222 362 L 1229 364 L 1233 369 L 1237 369 L 1238 370 L 1244 369 L 1247 366 L 1247 363 L 1246 362 L 1245 357 L 1243 355 L 1240 354 L 1237 350 L 1235 350 L 1231 348 L 1226 344 L 1224 344 L 1223 343 L 1210 343 L 1209 342 Z M 730 343 L 726 345 L 724 348 L 719 350 L 717 353 L 712 357 L 712 360 L 707 366 L 707 379 L 708 381 L 711 384 L 714 391 L 718 393 L 722 397 L 733 400 L 736 403 L 738 403 L 739 404 L 750 405 L 751 406 L 753 406 L 758 410 L 763 410 L 764 411 L 766 411 L 772 418 L 772 426 L 771 427 L 771 430 L 769 432 L 767 432 L 763 437 L 757 437 L 756 438 L 743 438 L 742 437 L 736 437 L 734 436 L 731 432 L 728 431 L 726 429 L 726 427 L 723 425 L 721 422 L 719 421 L 714 421 L 714 422 L 710 425 L 709 434 L 710 434 L 712 436 L 712 438 L 715 440 L 720 446 L 722 446 L 725 450 L 730 452 L 734 452 L 741 456 L 744 456 L 745 457 L 752 457 L 753 456 L 759 455 L 761 453 L 763 453 L 764 452 L 769 452 L 770 451 L 772 451 L 775 447 L 780 445 L 780 444 L 784 440 L 785 440 L 786 435 L 791 429 L 791 416 L 790 415 L 790 412 L 786 408 L 785 405 L 783 403 L 780 402 L 777 398 L 772 396 L 769 396 L 761 391 L 758 391 L 757 390 L 750 390 L 749 389 L 747 389 L 742 385 L 738 385 L 737 384 L 732 383 L 731 381 L 726 377 L 726 369 L 727 368 L 727 365 L 732 363 L 738 358 L 757 358 L 760 362 L 763 363 L 766 367 L 772 372 L 773 374 L 778 374 L 781 370 L 783 370 L 785 368 L 785 361 L 780 356 L 777 351 L 774 350 L 768 345 L 764 343 L 754 343 L 753 342 Z M 233 285 L 228 285 L 225 288 L 221 289 L 220 291 L 216 292 L 213 295 L 211 295 L 202 301 L 199 302 L 197 304 L 193 305 L 190 308 L 187 309 L 185 311 L 183 311 L 180 314 L 176 315 L 175 317 L 171 318 L 163 324 L 159 325 L 158 327 L 154 328 L 147 333 L 143 334 L 140 337 L 138 337 L 135 340 L 131 341 L 130 343 L 128 343 L 123 347 L 121 347 L 119 349 L 114 351 L 113 353 L 109 354 L 102 359 L 98 360 L 95 363 L 93 363 L 90 366 L 86 367 L 85 369 L 81 370 L 74 375 L 69 377 L 68 379 L 64 380 L 60 383 L 60 386 L 62 389 L 64 390 L 65 392 L 67 393 L 68 395 L 71 397 L 72 399 L 74 400 L 75 402 L 77 403 L 78 405 L 80 406 L 81 408 L 86 413 L 87 413 L 88 415 L 90 416 L 91 418 L 93 419 L 94 421 L 99 426 L 100 426 L 101 428 L 103 429 L 104 431 L 106 432 L 107 434 L 112 439 L 113 439 L 114 441 L 116 442 L 125 452 L 127 453 L 127 454 L 131 454 L 133 452 L 137 451 L 139 448 L 142 448 L 145 445 L 149 444 L 150 442 L 154 441 L 155 439 L 159 438 L 162 435 L 166 434 L 167 432 L 169 432 L 178 426 L 182 425 L 185 422 L 187 422 L 195 416 L 199 415 L 200 413 L 204 412 L 207 409 L 209 409 L 218 403 L 221 402 L 223 400 L 227 399 L 230 396 L 230 392 L 231 391 L 231 289 L 233 287 Z M 231 126 L 225 127 L 223 130 L 220 130 L 212 136 L 208 137 L 207 139 L 203 140 L 200 143 L 198 143 L 189 149 L 186 150 L 184 152 L 180 153 L 178 156 L 175 156 L 167 162 L 163 163 L 162 165 L 158 166 L 155 169 L 153 169 L 149 172 L 146 173 L 145 175 L 143 175 L 139 178 L 135 179 L 132 182 L 130 182 L 122 188 L 118 189 L 110 195 L 108 195 L 106 197 L 102 198 L 100 201 L 96 202 L 87 208 L 85 208 L 82 211 L 80 211 L 77 214 L 73 215 L 70 218 L 68 218 L 61 223 L 57 224 L 54 227 L 52 227 L 44 233 L 40 234 L 32 240 L 30 240 L 28 242 L 23 244 L 22 246 L 20 246 L 16 249 L 12 250 L 9 253 L 7 253 L 2 258 L 2 262 L 4 265 L 4 276 L 5 277 L 5 280 L 7 282 L 7 288 L 8 289 L 8 293 L 10 295 L 11 303 L 14 307 L 14 312 L 17 316 L 17 319 L 20 323 L 20 326 L 23 330 L 24 335 L 26 336 L 27 340 L 30 343 L 30 346 L 32 348 L 38 348 L 42 345 L 46 344 L 47 342 L 51 341 L 59 335 L 63 334 L 64 332 L 66 332 L 71 328 L 73 328 L 75 326 L 80 324 L 81 322 L 83 322 L 87 319 L 91 318 L 92 316 L 96 315 L 104 309 L 108 308 L 109 306 L 111 306 L 120 300 L 124 299 L 126 296 L 129 296 L 132 293 L 136 292 L 139 289 L 141 289 L 149 283 L 153 282 L 154 280 L 156 280 L 165 274 L 169 273 L 171 270 L 174 270 L 177 267 L 179 267 L 182 264 L 186 263 L 187 261 L 191 260 L 194 257 L 196 257 L 200 254 L 202 254 L 205 251 L 208 250 L 212 247 L 214 247 L 217 244 L 219 244 L 227 238 L 230 238 L 230 235 L 231 234 Z M 2151 103 L 2148 107 L 2148 277 L 2151 281 L 2156 281 L 2157 282 L 2188 282 L 2189 281 L 2193 281 L 2195 280 L 2197 277 L 2197 230 L 2199 227 L 2211 227 L 2214 231 L 2218 234 L 2219 236 L 2219 240 L 2224 245 L 2226 252 L 2229 254 L 2232 263 L 2236 266 L 2236 269 L 2238 273 L 2242 276 L 2242 278 L 2244 281 L 2249 281 L 2250 282 L 2288 282 L 2293 280 L 2294 276 L 2292 272 L 2292 269 L 2291 267 L 2287 264 L 2285 257 L 2281 254 L 2280 248 L 2278 244 L 2275 242 L 2273 234 L 2269 231 L 2267 224 L 2262 218 L 2262 213 L 2264 211 L 2267 210 L 2269 206 L 2273 204 L 2275 199 L 2278 197 L 2280 193 L 2281 186 L 2284 184 L 2285 182 L 2285 178 L 2286 177 L 2286 152 L 2285 151 L 2285 147 L 2281 142 L 2280 135 L 2279 133 L 2275 130 L 2274 126 L 2272 125 L 2263 115 L 2259 114 L 2256 110 L 2251 108 L 2245 107 L 2242 104 L 2235 103 L 2234 102 L 2153 102 Z M 2198 148 L 2199 147 L 2226 147 L 2230 150 L 2234 151 L 2237 153 L 2238 157 L 2240 158 L 2242 161 L 2242 167 L 2241 169 L 2239 170 L 2236 176 L 2234 178 L 2231 178 L 2230 179 L 2200 180 L 2197 177 L 2197 152 L 2198 151 Z M 1927 104 L 1925 107 L 1925 227 L 1926 228 L 1926 233 L 1930 239 L 1930 244 L 1931 245 L 1932 250 L 1936 253 L 1937 257 L 1942 262 L 1942 263 L 1945 265 L 1948 269 L 1952 270 L 1956 275 L 1962 276 L 1968 281 L 1979 282 L 1981 284 L 1986 285 L 1987 286 L 1993 286 L 1994 287 L 2009 286 L 2010 285 L 2012 285 L 2016 282 L 2027 281 L 2031 279 L 2033 276 L 2039 275 L 2044 270 L 2049 268 L 2049 267 L 2054 262 L 2055 262 L 2057 257 L 2060 255 L 2062 252 L 2063 246 L 2066 243 L 2068 238 L 2068 227 L 2069 226 L 2069 110 L 2068 109 L 2068 105 L 2065 102 L 2028 102 L 2024 105 L 2023 107 L 2023 155 L 2022 156 L 2022 220 L 2021 221 L 2021 224 L 2020 225 L 2019 230 L 2017 232 L 2014 233 L 2011 237 L 2006 237 L 2005 238 L 1991 238 L 1990 237 L 1986 237 L 1984 234 L 1981 233 L 1979 231 L 1977 231 L 1975 229 L 1975 226 L 1974 225 L 1974 108 L 1973 107 L 1973 105 L 1967 102 L 1932 102 Z M 1743 102 L 1742 103 L 1739 103 L 1733 107 L 1725 109 L 1719 114 L 1714 115 L 1711 119 L 1707 120 L 1706 122 L 1694 133 L 1694 135 L 1689 139 L 1688 143 L 1684 146 L 1683 152 L 1678 158 L 1677 168 L 1674 172 L 1673 177 L 1672 178 L 1672 207 L 1673 208 L 1673 212 L 1677 218 L 1678 228 L 1683 234 L 1684 240 L 1688 243 L 1690 248 L 1696 254 L 1696 256 L 1697 257 L 1699 257 L 1701 260 L 1711 269 L 1716 270 L 1719 274 L 1726 276 L 1733 281 L 1744 282 L 1745 283 L 1747 283 L 1749 285 L 1757 286 L 1758 287 L 1771 287 L 1772 286 L 1777 286 L 1778 285 L 1781 285 L 1785 282 L 1797 281 L 1801 279 L 1803 276 L 1809 275 L 1813 271 L 1817 269 L 1819 269 L 1823 264 L 1826 263 L 1827 261 L 1833 256 L 1833 254 L 1838 250 L 1839 247 L 1842 245 L 1844 242 L 1845 236 L 1850 231 L 1851 222 L 1856 214 L 1856 205 L 1857 204 L 1857 181 L 1856 180 L 1856 171 L 1851 164 L 1851 158 L 1849 155 L 1849 153 L 1845 149 L 1844 144 L 1840 140 L 1837 134 L 1836 134 L 1833 130 L 1825 123 L 1824 121 L 1821 120 L 1816 115 L 1809 113 L 1808 111 L 1805 109 L 1799 108 L 1793 104 L 1787 103 L 1786 102 Z M 1763 147 L 1766 147 L 1767 148 L 1770 148 L 1772 150 L 1787 153 L 1790 157 L 1794 158 L 1796 162 L 1801 166 L 1802 170 L 1806 174 L 1806 176 L 1807 177 L 1807 185 L 1808 186 L 1808 200 L 1807 201 L 1807 209 L 1806 210 L 1806 213 L 1802 216 L 1800 221 L 1792 228 L 1791 228 L 1788 232 L 1784 232 L 1778 237 L 1772 237 L 1771 238 L 1758 238 L 1757 237 L 1751 237 L 1748 233 L 1741 232 L 1739 229 L 1727 218 L 1727 216 L 1725 212 L 1721 207 L 1721 178 L 1722 176 L 1725 174 L 1728 168 L 1728 166 L 1730 165 L 1736 158 L 1738 158 L 1745 152 L 1754 151 Z M 1488 103 L 1486 104 L 1484 107 L 1484 143 L 1486 145 L 1491 146 L 1492 147 L 1529 147 L 1530 148 L 1530 278 L 1532 281 L 1534 281 L 1535 282 L 1570 282 L 1571 281 L 1573 281 L 1577 276 L 1577 152 L 1578 151 L 1578 149 L 1580 147 L 1614 147 L 1615 146 L 1619 146 L 1621 143 L 1621 107 L 1618 103 L 1616 103 L 1615 102 L 1491 102 L 1490 103 Z M 1303 104 L 1301 108 L 1301 277 L 1302 279 L 1305 281 L 1309 281 L 1310 282 L 1411 282 L 1416 280 L 1418 277 L 1418 242 L 1416 239 L 1411 237 L 1351 237 L 1350 236 L 1350 216 L 1352 212 L 1406 212 L 1408 211 L 1409 209 L 1409 171 L 1406 167 L 1352 167 L 1350 165 L 1350 149 L 1352 147 L 1412 147 L 1414 146 L 1416 142 L 1416 110 L 1415 109 L 1415 105 L 1412 102 L 1308 102 Z M 1091 104 L 1090 106 L 1090 112 L 1089 113 L 1089 119 L 1090 120 L 1090 140 L 1089 141 L 1089 272 L 1090 273 L 1090 279 L 1091 280 L 1098 281 L 1099 282 L 1130 282 L 1131 281 L 1135 281 L 1137 280 L 1138 278 L 1138 230 L 1140 227 L 1152 227 L 1158 231 L 1161 240 L 1165 242 L 1166 249 L 1171 253 L 1172 260 L 1177 265 L 1178 270 L 1182 274 L 1184 279 L 1186 281 L 1191 281 L 1192 282 L 1229 282 L 1230 281 L 1236 280 L 1237 279 L 1237 276 L 1233 272 L 1233 269 L 1231 264 L 1227 260 L 1227 257 L 1224 252 L 1222 251 L 1221 246 L 1216 240 L 1214 233 L 1210 230 L 1210 228 L 1207 221 L 1204 219 L 1204 213 L 1206 211 L 1209 210 L 1210 207 L 1215 203 L 1215 201 L 1220 197 L 1222 189 L 1226 185 L 1226 182 L 1227 181 L 1227 148 L 1226 147 L 1225 142 L 1221 137 L 1220 132 L 1216 128 L 1214 124 L 1209 119 L 1208 119 L 1206 116 L 1200 113 L 1196 109 L 1187 107 L 1184 104 L 1177 103 L 1176 102 L 1096 102 L 1093 104 Z M 1140 147 L 1169 147 L 1171 150 L 1173 150 L 1177 152 L 1179 155 L 1182 157 L 1183 159 L 1183 167 L 1182 168 L 1182 171 L 1177 175 L 1177 177 L 1176 178 L 1174 178 L 1173 179 L 1165 179 L 1164 180 L 1145 179 L 1144 180 L 1141 180 L 1138 177 L 1138 150 Z M 886 102 L 883 105 L 883 279 L 885 281 L 887 281 L 888 282 L 968 282 L 969 281 L 981 281 L 982 280 L 984 280 L 988 276 L 991 276 L 996 274 L 999 270 L 1003 269 L 1004 266 L 1008 264 L 1009 260 L 1014 256 L 1015 251 L 1020 244 L 1020 240 L 1021 239 L 1021 210 L 1020 209 L 1020 205 L 1016 200 L 1014 193 L 1009 189 L 1009 180 L 1010 179 L 1010 177 L 1013 175 L 1014 173 L 1014 169 L 1015 168 L 1015 146 L 1014 145 L 1014 140 L 1010 136 L 1008 128 L 1004 125 L 1003 121 L 998 118 L 998 116 L 996 114 L 993 114 L 989 109 L 981 107 L 976 103 L 971 103 L 970 102 Z M 930 213 L 933 211 L 970 211 L 972 213 L 973 216 L 975 216 L 977 218 L 977 230 L 975 232 L 972 233 L 970 237 L 932 237 L 930 235 Z M 930 153 L 933 147 L 964 147 L 967 151 L 969 151 L 971 153 L 971 162 L 968 166 L 966 166 L 965 167 L 933 167 L 930 165 Z M 757 102 L 753 105 L 753 109 L 752 110 L 752 276 L 753 277 L 753 279 L 755 281 L 757 281 L 758 282 L 793 282 L 797 280 L 797 278 L 798 277 L 798 110 L 797 109 L 797 105 L 794 102 Z M 568 104 L 566 106 L 566 278 L 570 281 L 574 281 L 575 282 L 676 282 L 680 280 L 682 277 L 682 242 L 679 238 L 676 238 L 675 237 L 616 237 L 615 236 L 615 110 L 614 109 L 614 105 L 608 102 L 573 102 Z M 230 0 L 213 0 L 212 2 L 208 2 L 203 4 L 190 4 L 184 7 L 177 7 L 176 8 L 173 8 L 171 10 L 162 11 L 160 13 L 153 14 L 149 17 L 145 17 L 142 20 L 139 20 L 135 23 L 130 24 L 129 26 L 124 27 L 122 29 L 118 30 L 115 33 L 113 33 L 110 36 L 102 40 L 95 46 L 92 47 L 91 49 L 86 52 L 71 66 L 70 66 L 70 67 L 66 70 L 66 71 L 59 78 L 59 79 L 56 81 L 49 91 L 47 92 L 46 95 L 40 102 L 36 110 L 34 111 L 33 115 L 27 123 L 27 126 L 24 129 L 23 134 L 21 135 L 20 141 L 17 145 L 17 148 L 14 152 L 13 159 L 11 161 L 10 169 L 8 171 L 7 182 L 5 184 L 5 186 L 4 187 L 4 199 L 3 200 L 2 205 L 3 206 L 10 205 L 13 202 L 15 202 L 17 201 L 18 199 L 20 199 L 29 193 L 33 192 L 35 189 L 38 189 L 41 186 L 43 186 L 46 183 L 50 182 L 51 180 L 55 179 L 58 176 L 60 176 L 68 170 L 70 170 L 74 167 L 78 166 L 81 163 L 83 163 L 91 157 L 95 156 L 96 154 L 98 154 L 103 150 L 105 150 L 107 148 L 111 147 L 113 144 L 116 144 L 119 141 L 123 140 L 126 137 L 128 137 L 129 135 L 133 134 L 136 131 L 140 130 L 141 128 L 143 128 L 152 122 L 156 121 L 159 118 L 161 118 L 169 112 L 173 111 L 174 109 L 176 109 L 181 105 L 183 105 L 187 102 L 190 101 L 191 99 L 193 99 L 197 96 L 201 95 L 204 92 L 206 92 L 214 86 L 218 85 L 219 83 L 223 82 L 226 79 L 231 78 L 231 6 L 230 5 Z" fill="#1b8360" fill-rule="evenodd"/>
<path d="M 238 447 L 232 447 L 232 550 L 231 551 L 232 555 L 234 555 L 235 553 L 237 552 L 245 544 L 245 543 L 247 542 L 248 540 L 250 539 L 258 531 L 258 530 L 260 529 L 261 527 L 263 526 L 300 489 L 301 487 L 301 484 L 300 483 L 297 482 L 285 474 L 281 473 L 278 470 L 274 469 L 273 467 L 269 466 L 261 460 L 258 460 L 256 457 L 252 456 L 250 454 L 247 453 Z M 232 289 L 232 391 L 231 392 L 231 396 L 234 397 L 235 399 L 237 399 L 246 405 L 251 407 L 253 409 L 255 409 L 258 412 L 262 413 L 263 415 L 267 416 L 275 422 L 278 422 L 280 425 L 282 425 L 291 431 L 295 432 L 303 438 L 307 439 L 308 441 L 310 441 L 319 447 L 323 448 L 331 454 L 335 454 L 335 453 L 337 452 L 345 444 L 345 443 L 347 442 L 348 440 L 350 439 L 358 431 L 358 430 L 360 429 L 361 427 L 363 426 L 371 418 L 371 417 L 373 416 L 374 414 L 376 413 L 377 411 L 379 410 L 384 405 L 384 404 L 386 403 L 387 401 L 389 400 L 390 398 L 400 389 L 402 386 L 402 383 L 401 383 L 397 379 L 394 379 L 392 376 L 390 376 L 381 370 L 378 369 L 376 367 L 372 366 L 369 363 L 367 363 L 359 357 L 355 356 L 354 354 L 349 353 L 347 350 L 345 350 L 341 347 L 339 347 L 331 341 L 327 340 L 324 337 L 322 337 L 314 331 L 310 330 L 309 328 L 307 328 L 298 322 L 294 321 L 291 318 L 287 317 L 286 315 L 282 314 L 279 311 L 277 311 L 269 305 L 267 305 L 258 299 L 255 298 L 253 296 L 249 295 L 241 289 L 239 289 L 238 288 L 233 288 Z M 232 127 L 232 237 L 233 238 L 235 238 L 238 241 L 240 241 L 243 244 L 246 244 L 248 247 L 250 247 L 259 253 L 263 254 L 264 256 L 268 257 L 271 260 L 275 261 L 276 263 L 280 264 L 288 270 L 291 270 L 292 272 L 297 274 L 304 279 L 308 280 L 309 282 L 313 283 L 316 286 L 320 287 L 321 289 L 325 290 L 333 296 L 336 296 L 339 299 L 342 300 L 344 302 L 346 302 L 349 305 L 353 306 L 354 308 L 358 309 L 361 312 L 363 312 L 371 318 L 373 318 L 377 321 L 381 322 L 382 324 L 387 326 L 389 328 L 391 328 L 394 331 L 398 332 L 399 334 L 403 335 L 411 341 L 415 342 L 424 348 L 429 348 L 431 347 L 432 343 L 435 340 L 435 338 L 442 326 L 442 323 L 445 319 L 445 315 L 448 311 L 448 307 L 451 303 L 451 298 L 455 288 L 455 282 L 457 280 L 457 277 L 458 276 L 458 265 L 460 262 L 460 258 L 455 253 L 453 253 L 450 250 L 446 249 L 445 247 L 443 247 L 434 241 L 430 240 L 427 237 L 425 237 L 422 234 L 420 234 L 417 231 L 413 230 L 410 227 L 408 227 L 405 224 L 401 223 L 389 215 L 385 214 L 382 211 L 380 211 L 372 205 L 368 204 L 360 198 L 358 198 L 354 195 L 352 195 L 349 192 L 346 191 L 342 188 L 340 188 L 337 185 L 335 185 L 327 179 L 323 178 L 322 176 L 318 175 L 310 169 L 307 169 L 304 166 L 301 165 L 297 162 L 295 162 L 292 159 L 290 159 L 282 153 L 278 152 L 276 150 L 268 146 L 265 143 L 262 143 L 259 140 L 256 139 L 254 137 L 252 137 L 249 134 L 245 133 L 242 130 L 239 130 L 237 127 Z M 231 0 L 231 5 L 232 6 L 232 76 L 234 79 L 236 79 L 239 82 L 243 83 L 244 85 L 248 86 L 256 92 L 260 93 L 261 95 L 263 95 L 267 98 L 271 99 L 272 101 L 277 103 L 279 105 L 281 105 L 284 108 L 288 109 L 289 111 L 293 112 L 301 118 L 304 118 L 306 121 L 309 121 L 317 127 L 321 128 L 329 134 L 333 135 L 334 137 L 336 137 L 345 143 L 349 144 L 352 147 L 355 148 L 357 150 L 359 150 L 362 153 L 366 154 L 367 156 L 371 157 L 374 160 L 378 161 L 379 163 L 381 163 L 390 169 L 394 170 L 396 173 L 398 173 L 402 176 L 404 176 L 407 179 L 411 180 L 412 182 L 416 183 L 424 189 L 427 189 L 430 192 L 433 193 L 440 198 L 444 199 L 452 205 L 454 205 L 455 206 L 459 206 L 460 205 L 460 203 L 458 199 L 458 188 L 455 182 L 454 171 L 452 169 L 451 161 L 448 157 L 448 152 L 445 149 L 445 145 L 442 141 L 442 138 L 439 134 L 439 132 L 435 126 L 435 124 L 432 120 L 432 118 L 429 115 L 429 113 L 426 110 L 422 102 L 419 100 L 419 98 L 409 86 L 406 81 L 403 79 L 403 78 L 392 67 L 392 66 L 391 66 L 383 58 L 378 55 L 376 52 L 364 43 L 361 42 L 360 40 L 352 36 L 349 33 L 347 33 L 344 30 L 342 30 L 330 23 L 327 23 L 324 20 L 320 20 L 317 17 L 313 17 L 309 14 L 305 14 L 304 13 L 302 13 L 300 11 L 291 10 L 289 8 L 286 8 L 285 7 L 278 7 L 272 4 L 259 4 L 254 2 L 250 2 L 249 0 Z" fill="#44ab6b" fill-rule="evenodd"/>
</svg>