<svg xmlns="http://www.w3.org/2000/svg" width="1745" height="1571" viewBox="0 0 1745 1571">
<path d="M 782 1451 L 781 1453 L 781 1554 L 783 1558 L 785 1559 L 789 1559 L 790 1560 L 856 1560 L 859 1558 L 860 1556 L 860 1547 L 859 1545 L 856 1543 L 802 1543 L 800 1541 L 800 1517 L 802 1512 L 839 1512 L 840 1511 L 843 1511 L 847 1508 L 847 1501 L 846 1499 L 840 1496 L 802 1496 L 800 1494 L 800 1468 L 802 1464 L 858 1464 L 860 1462 L 860 1452 L 857 1449 L 786 1449 Z M 422 1450 L 419 1453 L 419 1455 L 418 1456 L 418 1554 L 422 1558 L 426 1560 L 433 1559 L 435 1558 L 436 1556 L 436 1493 L 435 1491 L 433 1490 L 433 1486 L 434 1485 L 436 1485 L 436 1482 L 437 1481 L 439 1481 L 440 1482 L 440 1486 L 445 1490 L 445 1492 L 447 1495 L 458 1507 L 459 1510 L 463 1512 L 464 1516 L 468 1518 L 469 1522 L 475 1528 L 476 1531 L 480 1534 L 482 1538 L 487 1542 L 487 1544 L 489 1546 L 491 1546 L 492 1547 L 493 1551 L 502 1559 L 509 1559 L 511 1558 L 513 1553 L 513 1543 L 512 1542 L 512 1452 L 508 1449 L 500 1449 L 494 1454 L 494 1518 L 493 1519 L 490 1519 L 488 1516 L 483 1512 L 483 1510 L 481 1508 L 479 1508 L 478 1507 L 477 1503 L 473 1500 L 472 1497 L 469 1493 L 467 1492 L 464 1486 L 461 1485 L 459 1482 L 459 1480 L 456 1479 L 454 1477 L 453 1473 L 449 1471 L 448 1467 L 444 1464 L 441 1459 L 436 1454 L 435 1451 L 431 1449 L 424 1449 Z M 319 1449 L 316 1453 L 316 1555 L 319 1559 L 321 1560 L 326 1560 L 327 1559 L 329 1559 L 331 1557 L 331 1555 L 332 1554 L 332 1455 L 330 1450 L 328 1449 Z M 1535 1449 L 1534 1450 L 1532 1450 L 1527 1455 L 1524 1456 L 1522 1460 L 1518 1462 L 1516 1467 L 1516 1471 L 1512 1474 L 1512 1476 L 1511 1477 L 1511 1489 L 1510 1490 L 1510 1498 L 1509 1499 L 1509 1511 L 1510 1512 L 1510 1520 L 1511 1521 L 1511 1531 L 1512 1532 L 1512 1535 L 1516 1539 L 1518 1546 L 1521 1547 L 1522 1548 L 1522 1550 L 1524 1552 L 1527 1553 L 1530 1557 L 1539 1559 L 1541 1561 L 1543 1561 L 1544 1562 L 1556 1562 L 1560 1559 L 1567 1558 L 1571 1556 L 1574 1552 L 1576 1552 L 1578 1550 L 1578 1548 L 1583 1544 L 1584 1539 L 1589 1531 L 1589 1524 L 1590 1523 L 1589 1512 L 1588 1511 L 1588 1509 L 1585 1506 L 1583 1498 L 1578 1494 L 1577 1491 L 1573 1490 L 1570 1486 L 1565 1485 L 1564 1484 L 1553 1483 L 1552 1482 L 1546 1483 L 1545 1484 L 1531 1485 L 1530 1484 L 1530 1478 L 1531 1477 L 1532 1472 L 1534 1470 L 1536 1470 L 1542 1464 L 1558 1464 L 1570 1475 L 1579 1475 L 1581 1474 L 1583 1471 L 1583 1464 L 1578 1460 L 1576 1456 L 1574 1456 L 1569 1451 L 1565 1449 L 1554 1449 L 1553 1448 Z M 1542 1499 L 1558 1499 L 1569 1508 L 1569 1510 L 1570 1511 L 1570 1517 L 1571 1518 L 1570 1531 L 1569 1532 L 1569 1535 L 1567 1537 L 1564 1538 L 1563 1541 L 1561 1543 L 1556 1543 L 1555 1544 L 1544 1544 L 1543 1543 L 1539 1543 L 1535 1538 L 1531 1536 L 1530 1527 L 1526 1522 L 1526 1513 L 1530 1510 L 1532 1505 L 1534 1505 L 1538 1503 L 1538 1502 Z M 1375 1450 L 1372 1453 L 1366 1456 L 1364 1459 L 1359 1463 L 1357 1468 L 1355 1470 L 1355 1472 L 1361 1479 L 1368 1480 L 1372 1476 L 1373 1473 L 1376 1470 L 1381 1468 L 1385 1464 L 1403 1464 L 1405 1467 L 1409 1469 L 1412 1472 L 1412 1474 L 1416 1477 L 1416 1488 L 1412 1490 L 1411 1494 L 1409 1496 L 1405 1497 L 1402 1501 L 1400 1501 L 1394 1504 L 1391 1508 L 1388 1508 L 1384 1510 L 1382 1513 L 1376 1515 L 1374 1519 L 1370 1520 L 1369 1523 L 1367 1525 L 1364 1526 L 1363 1529 L 1358 1533 L 1357 1537 L 1353 1541 L 1353 1543 L 1352 1544 L 1352 1556 L 1353 1558 L 1356 1560 L 1427 1560 L 1429 1559 L 1431 1556 L 1431 1547 L 1430 1545 L 1427 1543 L 1376 1543 L 1375 1542 L 1375 1540 L 1377 1537 L 1384 1531 L 1385 1529 L 1393 1526 L 1393 1525 L 1397 1522 L 1400 1522 L 1404 1517 L 1410 1516 L 1414 1511 L 1418 1510 L 1420 1507 L 1425 1503 L 1426 1500 L 1430 1497 L 1430 1495 L 1431 1494 L 1431 1485 L 1432 1484 L 1432 1482 L 1431 1481 L 1431 1470 L 1430 1469 L 1430 1467 L 1426 1463 L 1422 1457 L 1416 1454 L 1410 1449 L 1389 1448 L 1388 1449 L 1378 1449 L 1377 1450 Z M 1219 1449 L 1215 1451 L 1211 1455 L 1208 1456 L 1206 1458 L 1206 1459 L 1200 1465 L 1199 1470 L 1194 1477 L 1194 1480 L 1193 1481 L 1193 1492 L 1192 1493 L 1192 1516 L 1193 1517 L 1193 1527 L 1194 1528 L 1194 1532 L 1195 1534 L 1198 1536 L 1200 1544 L 1202 1545 L 1205 1548 L 1205 1550 L 1209 1552 L 1212 1556 L 1217 1558 L 1221 1558 L 1227 1562 L 1239 1562 L 1243 1559 L 1250 1558 L 1254 1556 L 1257 1552 L 1260 1551 L 1261 1548 L 1265 1545 L 1267 1539 L 1271 1535 L 1273 1520 L 1276 1514 L 1276 1494 L 1275 1493 L 1275 1491 L 1273 1489 L 1271 1474 L 1270 1472 L 1267 1470 L 1265 1463 L 1260 1459 L 1259 1456 L 1255 1455 L 1253 1452 L 1247 1449 L 1237 1449 L 1236 1448 Z M 1226 1464 L 1240 1464 L 1247 1470 L 1250 1470 L 1251 1471 L 1253 1478 L 1257 1482 L 1257 1487 L 1258 1488 L 1258 1522 L 1257 1523 L 1257 1526 L 1252 1532 L 1252 1535 L 1248 1538 L 1244 1543 L 1223 1543 L 1221 1542 L 1217 1537 L 1215 1537 L 1214 1536 L 1211 1526 L 1208 1524 L 1208 1519 L 1207 1518 L 1207 1490 L 1208 1489 L 1208 1485 L 1212 1481 L 1214 1474 Z M 1060 1449 L 1056 1451 L 1050 1456 L 1048 1456 L 1046 1460 L 1041 1463 L 1041 1465 L 1039 1467 L 1038 1472 L 1044 1479 L 1051 1479 L 1058 1470 L 1063 1468 L 1067 1464 L 1085 1464 L 1090 1469 L 1093 1470 L 1094 1471 L 1094 1473 L 1098 1476 L 1099 1484 L 1098 1485 L 1098 1488 L 1094 1491 L 1093 1494 L 1091 1496 L 1089 1496 L 1084 1501 L 1080 1503 L 1078 1503 L 1074 1508 L 1070 1508 L 1064 1513 L 1059 1515 L 1056 1519 L 1053 1520 L 1051 1523 L 1041 1532 L 1039 1538 L 1037 1539 L 1034 1545 L 1034 1556 L 1039 1560 L 1109 1560 L 1111 1559 L 1113 1556 L 1113 1546 L 1109 1543 L 1058 1543 L 1057 1542 L 1057 1540 L 1063 1533 L 1065 1533 L 1067 1529 L 1075 1526 L 1076 1524 L 1079 1522 L 1084 1521 L 1087 1517 L 1089 1517 L 1093 1515 L 1096 1511 L 1100 1510 L 1104 1505 L 1107 1504 L 1108 1500 L 1110 1499 L 1113 1495 L 1113 1487 L 1114 1486 L 1113 1469 L 1108 1463 L 1107 1460 L 1103 1456 L 1098 1454 L 1094 1450 L 1092 1450 L 1091 1449 L 1083 1449 L 1082 1448 Z M 632 1449 L 628 1451 L 625 1454 L 617 1457 L 615 1461 L 612 1461 L 610 1465 L 606 1467 L 604 1472 L 600 1476 L 598 1481 L 598 1485 L 594 1490 L 594 1493 L 593 1494 L 593 1515 L 594 1516 L 594 1519 L 598 1524 L 599 1531 L 601 1534 L 604 1536 L 605 1540 L 607 1541 L 611 1546 L 614 1547 L 617 1551 L 621 1552 L 624 1556 L 626 1557 L 634 1558 L 643 1562 L 648 1562 L 649 1563 L 658 1562 L 666 1558 L 671 1558 L 672 1557 L 674 1557 L 676 1556 L 679 1552 L 684 1551 L 689 1546 L 690 1546 L 696 1539 L 696 1537 L 699 1535 L 701 1532 L 700 1525 L 697 1522 L 691 1522 L 688 1525 L 683 1527 L 682 1530 L 674 1538 L 670 1539 L 667 1543 L 658 1543 L 657 1544 L 643 1544 L 642 1543 L 634 1543 L 632 1542 L 629 1538 L 625 1537 L 624 1535 L 619 1531 L 618 1528 L 613 1522 L 613 1518 L 612 1517 L 612 1509 L 611 1508 L 611 1501 L 612 1500 L 612 1492 L 613 1491 L 613 1487 L 618 1481 L 619 1477 L 621 1475 L 623 1475 L 626 1470 L 634 1468 L 638 1464 L 662 1464 L 667 1468 L 674 1470 L 678 1475 L 682 1475 L 683 1476 L 689 1475 L 692 1472 L 692 1469 L 691 1468 L 690 1463 L 688 1461 L 685 1460 L 682 1456 L 680 1456 L 676 1454 L 671 1450 L 669 1450 L 668 1449 L 655 1449 L 654 1448 Z M 175 1449 L 171 1451 L 169 1454 L 164 1456 L 162 1459 L 157 1463 L 157 1466 L 152 1472 L 152 1485 L 153 1487 L 156 1490 L 159 1497 L 163 1499 L 167 1503 L 178 1506 L 181 1509 L 183 1509 L 184 1510 L 195 1511 L 196 1512 L 198 1512 L 203 1516 L 208 1516 L 209 1517 L 211 1517 L 217 1524 L 217 1532 L 216 1533 L 216 1536 L 214 1538 L 212 1538 L 208 1543 L 202 1543 L 201 1544 L 188 1544 L 187 1543 L 181 1543 L 179 1542 L 176 1538 L 173 1537 L 171 1535 L 171 1533 L 168 1531 L 166 1528 L 164 1527 L 159 1527 L 159 1528 L 155 1531 L 154 1540 L 155 1540 L 157 1542 L 157 1544 L 160 1546 L 165 1552 L 167 1552 L 170 1556 L 175 1558 L 179 1558 L 186 1562 L 189 1562 L 190 1563 L 197 1563 L 198 1562 L 204 1561 L 206 1559 L 208 1559 L 209 1558 L 214 1558 L 215 1557 L 217 1557 L 220 1553 L 225 1551 L 225 1550 L 229 1546 L 230 1546 L 231 1541 L 236 1535 L 236 1522 L 235 1521 L 235 1518 L 231 1514 L 230 1511 L 228 1509 L 225 1508 L 222 1504 L 217 1502 L 214 1502 L 206 1497 L 203 1497 L 202 1496 L 195 1496 L 194 1495 L 192 1495 L 187 1491 L 183 1491 L 182 1490 L 177 1489 L 176 1487 L 171 1483 L 171 1475 L 172 1474 L 172 1471 L 177 1469 L 183 1464 L 202 1464 L 205 1468 L 208 1469 L 211 1473 L 217 1478 L 218 1480 L 223 1480 L 226 1476 L 228 1476 L 230 1474 L 230 1467 L 225 1462 L 222 1457 L 219 1456 L 213 1451 L 209 1449 L 199 1449 L 198 1448 Z M 1596 1185 L 1593 1189 L 1593 1359 L 1596 1363 L 1601 1363 L 1602 1364 L 1633 1364 L 1634 1363 L 1638 1363 L 1640 1362 L 1642 1359 L 1642 1312 L 1644 1309 L 1656 1309 L 1659 1313 L 1663 1316 L 1664 1318 L 1664 1322 L 1669 1327 L 1671 1334 L 1674 1336 L 1677 1345 L 1681 1348 L 1681 1351 L 1683 1355 L 1687 1358 L 1687 1360 L 1689 1363 L 1694 1363 L 1695 1364 L 1733 1364 L 1738 1362 L 1739 1358 L 1737 1354 L 1737 1351 L 1736 1349 L 1732 1346 L 1730 1339 L 1726 1336 L 1725 1330 L 1723 1326 L 1720 1324 L 1718 1316 L 1714 1313 L 1712 1306 L 1707 1300 L 1707 1295 L 1709 1293 L 1712 1292 L 1714 1288 L 1718 1286 L 1720 1281 L 1723 1279 L 1725 1275 L 1726 1268 L 1729 1266 L 1730 1264 L 1730 1260 L 1731 1259 L 1731 1234 L 1730 1233 L 1730 1229 L 1726 1224 L 1725 1217 L 1724 1215 L 1720 1212 L 1719 1208 L 1717 1207 L 1708 1197 L 1704 1196 L 1701 1192 L 1696 1190 L 1690 1189 L 1687 1186 L 1680 1185 L 1679 1184 L 1598 1184 Z M 1643 1230 L 1644 1229 L 1671 1229 L 1675 1232 L 1679 1233 L 1682 1235 L 1683 1239 L 1685 1240 L 1687 1243 L 1687 1249 L 1686 1251 L 1684 1252 L 1681 1258 L 1679 1260 L 1676 1260 L 1675 1261 L 1645 1262 L 1642 1259 L 1642 1234 L 1643 1233 Z M 1372 1186 L 1370 1189 L 1370 1309 L 1371 1310 L 1371 1315 L 1375 1321 L 1375 1326 L 1376 1327 L 1377 1332 L 1381 1335 L 1382 1339 L 1387 1344 L 1387 1345 L 1390 1347 L 1393 1351 L 1397 1352 L 1401 1357 L 1407 1358 L 1413 1363 L 1424 1364 L 1426 1366 L 1431 1367 L 1432 1368 L 1438 1368 L 1439 1369 L 1454 1368 L 1455 1367 L 1457 1367 L 1461 1364 L 1472 1363 L 1476 1361 L 1478 1358 L 1484 1357 L 1489 1352 L 1494 1350 L 1494 1349 L 1499 1344 L 1500 1344 L 1502 1339 L 1505 1337 L 1507 1334 L 1508 1328 L 1511 1325 L 1513 1320 L 1513 1309 L 1514 1308 L 1514 1192 L 1513 1191 L 1513 1187 L 1510 1184 L 1473 1184 L 1469 1187 L 1468 1189 L 1468 1237 L 1467 1238 L 1467 1302 L 1466 1303 L 1466 1306 L 1465 1307 L 1464 1312 L 1462 1314 L 1459 1315 L 1456 1319 L 1451 1319 L 1450 1320 L 1436 1320 L 1435 1319 L 1431 1319 L 1429 1316 L 1426 1315 L 1424 1313 L 1422 1313 L 1420 1311 L 1420 1308 L 1419 1307 L 1419 1190 L 1418 1189 L 1418 1187 L 1412 1184 L 1377 1184 Z M 1188 1184 L 1187 1185 L 1184 1185 L 1178 1189 L 1170 1191 L 1164 1196 L 1159 1197 L 1156 1201 L 1152 1202 L 1151 1204 L 1139 1215 L 1139 1217 L 1134 1221 L 1133 1225 L 1129 1228 L 1128 1234 L 1123 1240 L 1122 1250 L 1119 1254 L 1118 1259 L 1117 1260 L 1117 1289 L 1118 1290 L 1118 1294 L 1122 1300 L 1123 1310 L 1128 1316 L 1129 1322 L 1133 1325 L 1135 1330 L 1141 1336 L 1141 1338 L 1142 1339 L 1144 1339 L 1146 1342 L 1156 1351 L 1161 1352 L 1164 1356 L 1171 1358 L 1178 1363 L 1189 1364 L 1190 1365 L 1192 1365 L 1194 1367 L 1202 1368 L 1203 1369 L 1216 1369 L 1217 1368 L 1222 1368 L 1223 1367 L 1226 1367 L 1230 1364 L 1242 1363 L 1246 1361 L 1248 1358 L 1254 1357 L 1258 1353 L 1262 1351 L 1264 1351 L 1268 1346 L 1271 1345 L 1272 1343 L 1278 1338 L 1278 1336 L 1283 1332 L 1284 1329 L 1287 1327 L 1289 1324 L 1290 1318 L 1295 1313 L 1296 1304 L 1301 1296 L 1301 1287 L 1302 1286 L 1302 1263 L 1301 1262 L 1301 1253 L 1296 1246 L 1296 1240 L 1294 1237 L 1294 1235 L 1290 1231 L 1289 1226 L 1285 1222 L 1282 1216 L 1281 1216 L 1278 1212 L 1270 1205 L 1269 1203 L 1266 1202 L 1261 1197 L 1254 1195 L 1253 1193 L 1250 1191 L 1244 1190 L 1238 1186 L 1232 1185 L 1231 1184 Z M 1208 1229 L 1211 1229 L 1212 1230 L 1215 1230 L 1217 1232 L 1232 1235 L 1235 1239 L 1239 1240 L 1241 1244 L 1246 1248 L 1247 1252 L 1251 1256 L 1251 1258 L 1252 1259 L 1252 1267 L 1253 1268 L 1253 1282 L 1252 1283 L 1252 1291 L 1251 1292 L 1251 1295 L 1247 1298 L 1245 1303 L 1237 1310 L 1236 1310 L 1233 1314 L 1229 1314 L 1223 1319 L 1217 1319 L 1216 1320 L 1203 1320 L 1202 1319 L 1196 1319 L 1193 1315 L 1186 1314 L 1184 1311 L 1172 1300 L 1172 1298 L 1170 1294 L 1166 1289 L 1166 1260 L 1167 1258 L 1170 1256 L 1173 1250 L 1173 1248 L 1175 1247 L 1181 1240 L 1183 1240 L 1190 1234 L 1199 1233 Z M 933 1185 L 931 1186 L 929 1189 L 929 1225 L 931 1227 L 936 1228 L 937 1229 L 974 1229 L 975 1230 L 975 1360 L 977 1363 L 979 1363 L 980 1364 L 1015 1364 L 1016 1363 L 1018 1363 L 1022 1358 L 1022 1234 L 1023 1233 L 1023 1231 L 1025 1229 L 1059 1229 L 1060 1228 L 1064 1228 L 1066 1225 L 1066 1189 L 1063 1185 L 1061 1185 L 1060 1184 L 936 1184 L 935 1185 Z M 748 1186 L 746 1190 L 746 1359 L 747 1361 L 750 1363 L 754 1363 L 755 1364 L 856 1364 L 861 1362 L 863 1359 L 863 1324 L 861 1321 L 856 1319 L 796 1319 L 795 1318 L 795 1298 L 797 1294 L 851 1294 L 853 1293 L 854 1291 L 854 1253 L 851 1249 L 797 1249 L 795 1247 L 795 1231 L 797 1229 L 857 1229 L 859 1228 L 861 1224 L 861 1192 L 860 1191 L 860 1187 L 857 1184 L 753 1184 Z M 536 1186 L 535 1188 L 535 1194 L 534 1195 L 534 1201 L 535 1202 L 535 1222 L 534 1223 L 534 1354 L 535 1355 L 535 1361 L 536 1362 L 543 1363 L 544 1364 L 575 1364 L 576 1363 L 580 1363 L 582 1362 L 583 1360 L 583 1312 L 585 1309 L 597 1309 L 603 1313 L 606 1322 L 610 1324 L 611 1331 L 616 1335 L 617 1342 L 622 1347 L 623 1352 L 627 1356 L 629 1361 L 631 1363 L 636 1363 L 637 1364 L 674 1364 L 675 1363 L 681 1362 L 682 1361 L 682 1358 L 678 1354 L 678 1351 L 676 1346 L 672 1342 L 672 1339 L 669 1334 L 667 1333 L 666 1328 L 661 1322 L 659 1315 L 655 1312 L 655 1310 L 652 1303 L 649 1301 L 649 1295 L 651 1293 L 654 1292 L 655 1289 L 660 1285 L 660 1283 L 665 1279 L 667 1271 L 671 1267 L 671 1264 L 672 1263 L 672 1230 L 671 1229 L 670 1224 L 666 1219 L 665 1214 L 661 1210 L 659 1206 L 654 1201 L 653 1201 L 651 1198 L 645 1195 L 641 1191 L 632 1189 L 629 1186 L 622 1185 L 621 1184 L 541 1184 L 538 1186 Z M 585 1229 L 614 1229 L 616 1232 L 618 1232 L 622 1234 L 624 1237 L 627 1239 L 628 1241 L 628 1249 L 627 1250 L 627 1253 L 622 1257 L 622 1259 L 621 1260 L 619 1260 L 618 1261 L 610 1261 L 609 1262 L 590 1261 L 589 1262 L 586 1262 L 583 1259 L 583 1232 Z M 331 1184 L 328 1187 L 328 1361 L 330 1363 L 332 1363 L 333 1364 L 413 1364 L 414 1363 L 426 1363 L 427 1362 L 429 1362 L 433 1358 L 436 1358 L 441 1356 L 444 1352 L 448 1351 L 449 1348 L 453 1346 L 454 1342 L 459 1338 L 460 1333 L 465 1326 L 465 1322 L 466 1321 L 466 1292 L 465 1291 L 465 1287 L 461 1282 L 459 1275 L 454 1271 L 454 1262 L 455 1261 L 455 1259 L 458 1257 L 459 1255 L 459 1251 L 460 1250 L 460 1228 L 459 1227 L 459 1222 L 455 1218 L 453 1210 L 449 1207 L 448 1203 L 443 1200 L 443 1198 L 441 1196 L 438 1196 L 434 1191 L 426 1189 L 421 1185 L 416 1185 L 415 1184 Z M 375 1295 L 378 1293 L 415 1293 L 417 1295 L 418 1298 L 420 1298 L 422 1300 L 422 1312 L 420 1314 L 417 1315 L 415 1319 L 377 1319 L 375 1317 Z M 375 1235 L 378 1229 L 409 1229 L 412 1233 L 414 1233 L 416 1235 L 416 1244 L 413 1248 L 411 1248 L 410 1249 L 378 1249 L 375 1247 Z M 202 1184 L 198 1187 L 198 1191 L 197 1192 L 197 1358 L 198 1359 L 198 1361 L 200 1363 L 202 1363 L 203 1364 L 238 1364 L 242 1362 L 242 1360 L 243 1359 L 243 1192 L 242 1191 L 242 1187 L 239 1184 Z M 13 1186 L 11 1188 L 11 1360 L 15 1363 L 19 1363 L 20 1364 L 121 1364 L 125 1362 L 127 1359 L 127 1324 L 124 1320 L 121 1320 L 120 1319 L 61 1319 L 60 1318 L 60 1192 L 59 1191 L 59 1187 L 53 1184 L 18 1184 Z M 875 808 L 867 808 L 865 809 L 862 813 L 859 813 L 855 815 L 851 819 L 849 819 L 845 821 L 843 824 L 836 826 L 833 830 L 828 831 L 824 833 L 821 837 L 817 837 L 809 843 L 806 843 L 801 848 L 799 848 L 793 851 L 791 854 L 784 856 L 781 860 L 774 862 L 770 866 L 765 867 L 762 871 L 757 872 L 753 874 L 750 878 L 747 878 L 742 881 L 742 885 L 744 887 L 745 891 L 747 893 L 749 893 L 751 895 L 751 897 L 753 899 L 755 899 L 757 901 L 757 903 L 761 905 L 763 909 L 765 911 L 767 911 L 769 915 L 773 917 L 775 921 L 779 923 L 781 927 L 785 929 L 787 933 L 791 935 L 793 939 L 798 942 L 798 944 L 800 946 L 802 946 L 804 948 L 804 950 L 806 952 L 808 952 L 810 956 L 812 958 L 814 958 L 816 962 L 818 964 L 820 964 L 822 968 L 826 970 L 828 974 L 832 976 L 834 980 L 838 982 L 840 986 L 845 989 L 845 991 L 847 993 L 850 994 L 851 995 L 851 997 L 853 999 L 855 999 L 857 1001 L 857 1003 L 859 1005 L 861 1005 L 865 1011 L 867 1011 L 868 1012 L 871 1012 L 871 1010 L 870 1009 L 870 817 L 871 816 L 871 814 L 873 812 L 875 812 Z M 875 519 L 865 519 L 863 520 L 859 524 L 853 526 L 850 530 L 847 530 L 843 532 L 839 536 L 832 538 L 827 543 L 824 543 L 818 548 L 811 550 L 808 554 L 805 554 L 801 556 L 799 559 L 791 562 L 787 566 L 782 567 L 778 571 L 770 574 L 768 577 L 761 579 L 756 584 L 753 584 L 747 589 L 740 591 L 737 595 L 730 597 L 727 601 L 721 602 L 716 607 L 713 607 L 705 613 L 699 615 L 696 619 L 693 619 L 688 621 L 685 625 L 679 626 L 676 630 L 671 631 L 666 636 L 659 638 L 656 642 L 648 644 L 645 648 L 640 649 L 634 654 L 632 654 L 628 656 L 625 659 L 621 661 L 619 661 L 615 666 L 608 667 L 605 671 L 598 673 L 598 674 L 594 677 L 588 679 L 585 683 L 580 684 L 576 686 L 574 689 L 567 691 L 564 695 L 559 697 L 558 699 L 559 703 L 563 706 L 563 708 L 569 713 L 570 716 L 573 717 L 575 721 L 579 723 L 581 727 L 585 729 L 588 734 L 590 734 L 592 736 L 592 738 L 594 740 L 596 740 L 598 742 L 598 744 L 600 746 L 602 746 L 604 750 L 608 752 L 610 754 L 610 756 L 614 758 L 616 762 L 620 764 L 622 768 L 626 770 L 628 774 L 632 776 L 635 781 L 637 781 L 639 783 L 640 786 L 645 789 L 645 791 L 647 793 L 649 793 L 651 797 L 653 799 L 655 799 L 657 801 L 657 803 L 661 805 L 663 807 L 663 809 L 665 811 L 667 811 L 669 815 L 673 817 L 675 821 L 679 823 L 682 827 L 688 827 L 690 826 L 692 823 L 700 821 L 703 817 L 710 815 L 715 810 L 718 810 L 723 807 L 724 805 L 729 804 L 734 799 L 741 797 L 744 793 L 747 793 L 751 791 L 755 787 L 760 786 L 763 784 L 765 781 L 771 780 L 774 776 L 781 774 L 786 769 L 790 769 L 793 767 L 795 764 L 801 762 L 804 760 L 805 758 L 812 756 L 815 752 L 818 752 L 823 750 L 826 746 L 831 745 L 837 740 L 843 738 L 847 734 L 852 733 L 856 728 L 863 727 L 867 722 L 870 722 L 870 528 L 874 523 L 876 523 L 876 520 Z M 872 229 L 867 228 L 866 230 L 859 232 L 856 236 L 851 237 L 845 242 L 840 243 L 836 247 L 832 249 L 830 249 L 826 253 L 818 256 L 815 260 L 811 260 L 807 262 L 804 266 L 801 266 L 795 271 L 788 273 L 785 277 L 778 279 L 775 283 L 769 284 L 764 289 L 759 290 L 755 294 L 747 297 L 744 301 L 741 301 L 736 303 L 733 307 L 730 307 L 726 309 L 722 313 L 717 314 L 714 318 L 707 320 L 703 324 L 695 327 L 693 330 L 686 332 L 680 337 L 677 337 L 673 342 L 669 342 L 667 344 L 665 344 L 662 348 L 655 350 L 651 354 L 646 355 L 643 359 L 636 361 L 633 365 L 631 365 L 624 368 L 622 371 L 614 374 L 610 378 L 607 378 L 601 383 L 594 385 L 591 389 L 588 389 L 584 391 L 579 396 L 576 396 L 570 401 L 565 402 L 562 406 L 554 408 L 550 413 L 546 413 L 540 418 L 536 419 L 531 422 L 530 424 L 523 426 L 520 430 L 513 432 L 510 436 L 505 437 L 499 442 L 494 443 L 489 448 L 482 450 L 479 454 L 473 455 L 468 460 L 465 460 L 460 463 L 458 466 L 453 470 L 454 477 L 456 480 L 456 483 L 457 484 L 458 505 L 459 506 L 459 509 L 463 515 L 464 531 L 469 540 L 470 552 L 473 555 L 475 559 L 475 566 L 477 570 L 480 573 L 481 580 L 483 585 L 486 587 L 486 589 L 487 590 L 487 595 L 488 597 L 492 600 L 493 608 L 498 613 L 498 616 L 500 621 L 504 624 L 504 627 L 506 632 L 513 635 L 516 635 L 524 632 L 527 628 L 533 627 L 538 622 L 543 621 L 547 617 L 551 615 L 553 615 L 556 611 L 562 610 L 564 609 L 567 605 L 575 603 L 578 599 L 582 598 L 589 593 L 595 591 L 598 587 L 604 586 L 608 581 L 611 581 L 616 579 L 618 576 L 624 574 L 630 569 L 635 568 L 638 564 L 643 563 L 647 561 L 650 557 L 654 557 L 660 552 L 666 550 L 670 546 L 676 544 L 679 540 L 682 540 L 687 538 L 690 534 L 696 533 L 701 528 L 706 527 L 710 523 L 718 520 L 721 516 L 724 516 L 728 514 L 730 511 L 737 509 L 743 504 L 746 504 L 750 499 L 753 499 L 758 497 L 761 493 L 766 492 L 770 490 L 772 487 L 777 486 L 781 482 L 789 479 L 791 476 L 799 473 L 802 469 L 805 469 L 810 467 L 812 464 L 819 462 L 821 459 L 829 456 L 832 452 L 840 450 L 844 445 L 848 445 L 854 440 L 860 438 L 862 435 L 867 433 L 870 433 L 870 239 L 871 238 Z M 869 0 L 861 0 L 860 2 L 839 2 L 838 3 L 832 3 L 825 6 L 819 6 L 818 7 L 802 7 L 801 8 L 795 8 L 794 9 L 791 9 L 789 11 L 784 13 L 772 13 L 771 14 L 767 14 L 762 18 L 758 18 L 757 19 L 749 19 L 748 20 L 746 20 L 741 24 L 731 25 L 727 27 L 724 30 L 715 31 L 709 36 L 702 37 L 698 39 L 696 42 L 688 43 L 685 47 L 676 49 L 673 53 L 668 54 L 664 56 L 662 59 L 660 59 L 653 62 L 650 66 L 645 67 L 642 71 L 640 71 L 636 73 L 633 77 L 628 79 L 626 82 L 619 85 L 615 90 L 613 90 L 609 95 L 605 96 L 603 100 L 600 101 L 595 106 L 589 110 L 589 111 L 585 115 L 584 115 L 583 117 L 580 119 L 567 133 L 565 134 L 565 135 L 557 143 L 557 144 L 551 149 L 551 151 L 546 155 L 545 159 L 541 161 L 540 165 L 535 169 L 533 174 L 528 179 L 527 183 L 523 185 L 523 187 L 521 191 L 517 195 L 516 200 L 511 204 L 511 206 L 509 210 L 505 215 L 504 220 L 499 226 L 498 231 L 494 235 L 493 237 L 493 241 L 488 247 L 486 257 L 482 262 L 480 272 L 478 273 L 476 276 L 476 278 L 475 279 L 475 286 L 474 287 L 474 289 L 471 292 L 470 297 L 469 298 L 469 306 L 468 308 L 466 309 L 464 313 L 463 330 L 460 334 L 458 339 L 457 362 L 454 369 L 455 376 L 465 375 L 470 373 L 473 369 L 476 369 L 480 367 L 484 363 L 489 362 L 493 358 L 499 356 L 504 351 L 510 350 L 513 346 L 520 344 L 526 339 L 529 339 L 534 334 L 541 332 L 544 328 L 552 326 L 555 322 L 562 320 L 565 316 L 570 315 L 574 311 L 581 309 L 584 305 L 593 302 L 596 298 L 599 298 L 605 293 L 612 291 L 615 287 L 618 287 L 624 284 L 626 281 L 634 278 L 636 275 L 643 273 L 645 270 L 652 268 L 656 263 L 660 263 L 664 261 L 667 257 L 670 257 L 674 255 L 678 251 L 683 250 L 686 246 L 694 244 L 697 240 L 704 238 L 707 234 L 714 232 L 720 227 L 723 227 L 727 222 L 730 222 L 735 220 L 738 216 L 741 216 L 745 214 L 749 210 L 754 209 L 759 204 L 766 202 L 768 199 L 775 197 L 778 193 L 780 192 L 784 192 L 787 190 L 789 187 L 795 185 L 798 181 L 801 181 L 806 179 L 809 175 L 814 174 L 820 169 L 825 168 L 829 164 L 837 161 L 840 157 L 846 156 L 850 151 L 857 150 L 860 146 L 865 145 L 868 142 L 871 142 L 871 138 L 870 137 L 870 4 L 869 3 Z" fill="#1b8360" fill-rule="evenodd"/>
<path d="M 878 812 L 873 813 L 871 817 L 871 1009 L 872 1011 L 876 1011 L 879 1007 L 882 1005 L 884 1002 L 888 999 L 890 996 L 894 993 L 896 990 L 900 987 L 911 975 L 914 973 L 914 971 L 915 970 L 917 970 L 919 968 L 920 965 L 921 964 L 923 964 L 925 961 L 929 958 L 932 954 L 935 952 L 937 949 L 941 946 L 943 943 L 947 940 L 949 937 L 952 935 L 955 931 L 967 920 L 967 918 L 968 917 L 970 917 L 972 914 L 976 911 L 993 893 L 996 891 L 996 889 L 999 885 L 999 881 L 994 878 L 992 878 L 987 873 L 980 871 L 977 867 L 972 866 L 968 862 L 961 860 L 958 856 L 950 854 L 947 850 L 939 847 L 935 843 L 930 842 L 928 839 L 924 837 L 921 837 L 918 833 L 909 830 L 907 827 L 899 824 L 895 820 L 890 819 L 887 815 L 882 813 L 879 813 Z M 871 528 L 871 722 L 874 722 L 879 727 L 885 728 L 888 732 L 895 734 L 900 739 L 905 740 L 911 745 L 915 746 L 919 750 L 924 752 L 927 752 L 929 756 L 936 758 L 940 762 L 942 762 L 946 764 L 952 769 L 956 769 L 959 773 L 963 775 L 966 775 L 971 780 L 976 781 L 980 785 L 988 788 L 992 792 L 998 793 L 1002 798 L 1008 799 L 1011 803 L 1016 804 L 1022 809 L 1028 811 L 1030 814 L 1034 816 L 1039 817 L 1042 821 L 1049 823 L 1051 826 L 1053 827 L 1059 827 L 1062 823 L 1064 823 L 1067 819 L 1079 808 L 1079 806 L 1080 805 L 1082 805 L 1085 801 L 1088 799 L 1090 796 L 1094 793 L 1105 781 L 1108 779 L 1108 777 L 1112 775 L 1114 773 L 1114 771 L 1115 770 L 1117 770 L 1119 767 L 1126 761 L 1126 759 L 1130 757 L 1132 754 L 1135 752 L 1137 749 L 1141 746 L 1143 743 L 1147 740 L 1163 723 L 1166 721 L 1167 718 L 1168 717 L 1170 717 L 1172 715 L 1173 712 L 1178 709 L 1178 707 L 1183 702 L 1183 698 L 1179 696 L 1175 691 L 1167 689 L 1164 685 L 1157 683 L 1155 680 L 1152 678 L 1149 678 L 1147 677 L 1145 674 L 1141 672 L 1138 672 L 1135 668 L 1130 666 L 1127 666 L 1124 662 L 1118 660 L 1112 655 L 1107 654 L 1105 651 L 1102 649 L 1096 648 L 1093 644 L 1086 642 L 1083 638 L 1076 636 L 1072 632 L 1066 630 L 1064 627 L 1060 625 L 1056 625 L 1052 620 L 1045 618 L 1043 615 L 1035 612 L 1031 608 L 1026 607 L 1021 602 L 1015 601 L 1012 597 L 1005 595 L 999 590 L 996 590 L 989 584 L 984 583 L 981 579 L 973 577 L 970 573 L 968 573 L 964 571 L 960 567 L 955 566 L 951 562 L 947 560 L 944 560 L 941 556 L 932 553 L 929 549 L 923 548 L 922 546 L 918 543 L 915 543 L 910 538 L 908 538 L 905 536 L 902 536 L 899 532 L 892 530 L 889 526 L 887 526 L 883 524 L 874 524 Z M 873 231 L 872 238 L 871 239 L 871 431 L 872 433 L 879 434 L 883 439 L 886 439 L 892 444 L 899 446 L 902 450 L 909 452 L 911 455 L 919 458 L 925 463 L 928 463 L 932 467 L 936 469 L 939 469 L 942 473 L 949 475 L 954 480 L 961 482 L 963 485 L 970 487 L 973 491 L 975 492 L 979 492 L 982 496 L 986 498 L 991 499 L 993 502 L 996 504 L 1000 505 L 1003 507 L 1004 509 L 1011 511 L 1013 514 L 1017 516 L 1021 516 L 1025 521 L 1032 523 L 1034 526 L 1041 528 L 1046 533 L 1051 534 L 1054 538 L 1062 540 L 1065 544 L 1067 544 L 1073 547 L 1077 551 L 1082 552 L 1086 556 L 1093 558 L 1096 562 L 1102 563 L 1105 567 L 1113 570 L 1116 573 L 1120 575 L 1122 575 L 1124 578 L 1127 580 L 1133 581 L 1136 585 L 1141 587 L 1144 587 L 1147 591 L 1151 592 L 1159 598 L 1164 599 L 1167 603 L 1174 605 L 1177 609 L 1185 611 L 1188 615 L 1193 616 L 1197 620 L 1205 623 L 1209 627 L 1216 629 L 1219 633 L 1228 635 L 1235 632 L 1237 628 L 1237 624 L 1241 621 L 1244 612 L 1248 608 L 1250 600 L 1254 596 L 1255 587 L 1259 584 L 1261 573 L 1264 570 L 1266 565 L 1266 559 L 1271 551 L 1273 537 L 1277 531 L 1277 528 L 1278 527 L 1278 517 L 1279 516 L 1279 513 L 1282 510 L 1282 507 L 1283 506 L 1283 500 L 1284 499 L 1284 484 L 1288 474 L 1288 470 L 1282 464 L 1282 463 L 1277 460 L 1272 459 L 1269 455 L 1262 454 L 1260 450 L 1253 448 L 1249 444 L 1243 442 L 1239 438 L 1232 436 L 1229 432 L 1221 430 L 1218 426 L 1212 424 L 1208 420 L 1203 419 L 1199 415 L 1195 413 L 1192 413 L 1189 409 L 1180 406 L 1177 402 L 1172 401 L 1168 397 L 1161 395 L 1158 391 L 1153 389 L 1150 389 L 1146 384 L 1143 384 L 1139 382 L 1137 379 L 1132 378 L 1128 374 L 1124 372 L 1121 372 L 1116 367 L 1109 365 L 1106 361 L 1101 360 L 1095 355 L 1090 354 L 1087 350 L 1080 348 L 1076 344 L 1068 341 L 1066 338 L 1059 336 L 1057 333 L 1049 330 L 1047 327 L 1043 325 L 1038 324 L 1035 320 L 1028 318 L 1024 314 L 1018 312 L 1016 309 L 1012 307 L 1009 307 L 1004 302 L 998 301 L 995 297 L 987 294 L 983 290 L 978 289 L 974 285 L 967 283 L 964 279 L 959 278 L 953 273 L 947 271 L 941 266 L 938 266 L 933 261 L 927 260 L 924 256 L 916 253 L 912 249 L 907 248 L 903 244 L 896 242 L 893 238 L 885 236 L 884 234 L 880 231 Z M 871 0 L 871 137 L 872 138 L 872 140 L 873 140 L 877 145 L 880 145 L 884 149 L 888 151 L 891 151 L 894 155 L 903 158 L 905 161 L 911 163 L 916 168 L 922 169 L 925 173 L 930 175 L 933 175 L 936 179 L 943 181 L 946 185 L 952 187 L 958 192 L 962 192 L 967 197 L 974 199 L 977 203 L 982 204 L 988 209 L 990 209 L 994 211 L 996 214 L 1000 216 L 1003 216 L 1008 221 L 1014 222 L 1017 226 L 1024 228 L 1025 230 L 1030 233 L 1034 234 L 1038 238 L 1045 240 L 1048 244 L 1055 246 L 1058 250 L 1064 251 L 1068 255 L 1072 257 L 1074 257 L 1081 263 L 1085 263 L 1090 268 L 1095 269 L 1100 274 L 1103 274 L 1109 279 L 1116 281 L 1119 285 L 1121 285 L 1124 287 L 1127 287 L 1129 291 L 1137 293 L 1140 297 L 1145 298 L 1149 302 L 1153 304 L 1156 304 L 1161 309 L 1168 311 L 1171 315 L 1178 317 L 1180 320 L 1187 322 L 1190 326 L 1197 328 L 1201 332 L 1205 334 L 1208 334 L 1211 338 L 1217 340 L 1223 345 L 1227 345 L 1229 348 L 1234 351 L 1238 351 L 1241 355 L 1247 358 L 1249 358 L 1252 362 L 1258 363 L 1263 368 L 1269 369 L 1270 371 L 1274 374 L 1276 374 L 1280 376 L 1286 376 L 1287 374 L 1287 368 L 1284 362 L 1284 346 L 1283 345 L 1283 338 L 1280 334 L 1278 329 L 1278 318 L 1277 317 L 1277 313 L 1273 307 L 1271 294 L 1267 289 L 1265 276 L 1264 274 L 1261 272 L 1259 261 L 1255 258 L 1254 249 L 1250 244 L 1248 237 L 1243 231 L 1241 224 L 1237 220 L 1236 214 L 1232 211 L 1230 204 L 1226 201 L 1225 197 L 1220 191 L 1218 187 L 1218 185 L 1214 183 L 1214 181 L 1212 177 L 1208 174 L 1208 172 L 1201 164 L 1201 162 L 1196 159 L 1195 155 L 1190 151 L 1189 148 L 1185 145 L 1185 144 L 1178 137 L 1178 136 L 1176 135 L 1170 127 L 1169 127 L 1163 120 L 1162 120 L 1155 113 L 1154 113 L 1151 109 L 1146 106 L 1142 101 L 1138 100 L 1136 96 L 1132 95 L 1130 91 L 1125 89 L 1122 85 L 1116 82 L 1112 78 L 1108 77 L 1105 73 L 1100 71 L 1096 67 L 1091 66 L 1088 62 L 1080 59 L 1078 56 L 1074 54 L 1069 53 L 1065 49 L 1057 47 L 1056 45 L 1053 43 L 1045 41 L 1041 37 L 1032 36 L 1026 31 L 1018 30 L 1013 26 L 1011 26 L 1010 25 L 1000 24 L 997 21 L 992 19 L 984 19 L 983 18 L 979 18 L 976 15 L 974 14 L 970 14 L 969 13 L 957 13 L 947 8 L 916 6 L 913 4 L 903 3 L 902 2 L 876 2 L 875 0 Z" fill="#44ab6b" fill-rule="evenodd"/>
</svg>