<svg xmlns="http://www.w3.org/2000/svg" width="2300" height="560" viewBox="0 0 2300 560">
<path d="M 233 444 L 229 444 L 226 447 L 222 448 L 220 450 L 212 454 L 209 457 L 206 457 L 204 460 L 201 460 L 198 463 L 196 463 L 193 466 L 189 467 L 186 470 L 184 470 L 181 473 L 179 473 L 176 476 L 172 477 L 171 479 L 169 479 L 161 484 L 162 489 L 167 494 L 168 494 L 169 496 L 171 497 L 172 499 L 174 500 L 175 502 L 177 503 L 178 505 L 181 507 L 182 509 L 184 510 L 185 512 L 187 513 L 188 515 L 190 516 L 191 518 L 196 523 L 197 523 L 198 525 L 200 526 L 201 528 L 203 529 L 204 531 L 209 536 L 210 536 L 211 538 L 213 539 L 214 541 L 216 542 L 217 544 L 225 552 L 226 552 L 228 555 L 230 555 L 230 551 L 231 550 L 231 447 L 233 446 Z M 233 285 L 228 285 L 225 288 L 221 289 L 220 291 L 216 292 L 213 295 L 211 295 L 202 301 L 199 302 L 197 304 L 193 305 L 190 308 L 187 309 L 185 311 L 183 311 L 180 314 L 176 315 L 175 317 L 171 318 L 163 324 L 159 325 L 158 327 L 154 328 L 147 333 L 143 334 L 140 337 L 138 337 L 135 340 L 131 341 L 130 343 L 128 343 L 123 347 L 121 347 L 119 349 L 114 351 L 113 353 L 109 354 L 102 359 L 98 360 L 95 363 L 93 363 L 90 366 L 86 367 L 85 369 L 81 370 L 74 375 L 69 377 L 68 379 L 64 380 L 60 383 L 60 386 L 62 389 L 64 390 L 65 392 L 67 393 L 68 395 L 71 397 L 72 399 L 74 400 L 75 402 L 77 403 L 78 405 L 80 406 L 81 408 L 86 413 L 87 413 L 88 415 L 90 416 L 91 418 L 93 419 L 94 421 L 99 426 L 100 426 L 101 428 L 103 429 L 104 431 L 106 432 L 107 434 L 112 439 L 113 439 L 114 441 L 116 442 L 125 452 L 127 453 L 127 454 L 131 454 L 133 452 L 137 451 L 139 448 L 142 448 L 145 445 L 149 444 L 150 442 L 154 441 L 155 439 L 159 438 L 162 435 L 166 434 L 167 432 L 169 432 L 178 426 L 182 425 L 185 422 L 187 422 L 195 416 L 199 415 L 200 413 L 204 412 L 207 409 L 209 409 L 218 403 L 221 402 L 223 400 L 227 399 L 230 396 L 230 392 L 231 391 L 231 289 L 233 287 Z M 2151 190 L 2148 194 L 2148 364 L 2151 368 L 2156 368 L 2157 369 L 2188 369 L 2189 368 L 2193 368 L 2195 367 L 2197 364 L 2197 317 L 2199 314 L 2211 314 L 2214 318 L 2218 321 L 2219 323 L 2219 327 L 2224 332 L 2226 339 L 2229 341 L 2232 350 L 2236 353 L 2236 356 L 2238 360 L 2242 363 L 2242 365 L 2244 368 L 2249 368 L 2250 369 L 2288 369 L 2293 367 L 2294 363 L 2292 359 L 2292 356 L 2291 354 L 2287 351 L 2285 344 L 2281 341 L 2280 335 L 2278 331 L 2275 329 L 2273 321 L 2269 318 L 2267 311 L 2262 305 L 2262 300 L 2264 298 L 2267 297 L 2269 293 L 2273 291 L 2275 286 L 2278 284 L 2280 280 L 2281 273 L 2284 271 L 2285 269 L 2285 265 L 2286 264 L 2286 239 L 2285 238 L 2285 234 L 2281 229 L 2280 222 L 2279 220 L 2275 217 L 2274 213 L 2272 212 L 2263 202 L 2259 201 L 2256 197 L 2251 195 L 2245 194 L 2242 191 L 2235 190 L 2234 189 L 2153 189 Z M 2198 235 L 2199 234 L 2226 234 L 2230 237 L 2234 238 L 2237 240 L 2238 244 L 2240 245 L 2242 248 L 2242 254 L 2241 256 L 2239 257 L 2236 263 L 2234 265 L 2231 265 L 2230 266 L 2200 267 L 2197 264 L 2197 239 L 2198 238 Z M 1927 191 L 1925 194 L 1925 314 L 1926 315 L 1926 320 L 1930 326 L 1930 331 L 1931 332 L 1932 337 L 1936 340 L 1937 344 L 1942 349 L 1942 350 L 1945 352 L 1948 356 L 1952 357 L 1956 362 L 1962 363 L 1968 368 L 1979 369 L 1981 371 L 1986 372 L 1987 373 L 1993 373 L 1994 374 L 2009 373 L 2010 372 L 2012 372 L 2016 369 L 2027 368 L 2031 366 L 2033 363 L 2039 362 L 2044 357 L 2049 355 L 2049 354 L 2054 349 L 2055 349 L 2057 344 L 2060 342 L 2062 339 L 2063 333 L 2066 330 L 2068 325 L 2068 314 L 2069 313 L 2069 197 L 2068 196 L 2068 192 L 2065 189 L 2028 189 L 2024 192 L 2023 194 L 2023 242 L 2022 243 L 2022 307 L 2021 308 L 2021 311 L 2020 312 L 2019 317 L 2017 319 L 2014 320 L 2011 324 L 2006 324 L 2005 325 L 1991 325 L 1990 324 L 1986 324 L 1984 321 L 1981 320 L 1979 318 L 1977 318 L 1975 316 L 1975 313 L 1974 312 L 1974 195 L 1973 194 L 1973 192 L 1967 189 L 1932 189 Z M 1743 189 L 1742 190 L 1739 190 L 1733 194 L 1725 196 L 1719 201 L 1714 202 L 1711 206 L 1707 207 L 1706 209 L 1694 220 L 1694 222 L 1689 226 L 1688 230 L 1684 233 L 1683 239 L 1678 245 L 1677 255 L 1674 259 L 1673 264 L 1672 265 L 1672 294 L 1673 295 L 1673 299 L 1677 305 L 1678 315 L 1683 321 L 1684 327 L 1688 330 L 1690 335 L 1696 341 L 1696 343 L 1697 344 L 1699 344 L 1701 347 L 1711 356 L 1716 357 L 1719 361 L 1726 363 L 1733 368 L 1744 369 L 1745 370 L 1747 370 L 1749 372 L 1757 373 L 1758 374 L 1771 374 L 1772 373 L 1777 373 L 1778 372 L 1781 372 L 1785 369 L 1797 368 L 1801 366 L 1803 363 L 1809 362 L 1813 358 L 1817 356 L 1819 356 L 1823 351 L 1826 350 L 1827 348 L 1833 343 L 1833 341 L 1838 337 L 1839 334 L 1842 332 L 1844 329 L 1845 323 L 1850 318 L 1851 309 L 1856 301 L 1856 292 L 1857 291 L 1857 268 L 1856 267 L 1856 258 L 1851 251 L 1851 245 L 1849 242 L 1849 240 L 1845 236 L 1844 231 L 1840 227 L 1837 221 L 1836 221 L 1833 217 L 1825 210 L 1824 208 L 1821 207 L 1816 202 L 1809 200 L 1808 198 L 1805 196 L 1799 195 L 1793 191 L 1787 190 L 1786 189 Z M 1763 234 L 1766 234 L 1767 235 L 1770 235 L 1772 237 L 1787 240 L 1790 244 L 1794 245 L 1796 249 L 1801 253 L 1802 257 L 1806 261 L 1806 263 L 1807 264 L 1807 272 L 1808 273 L 1808 287 L 1807 288 L 1807 296 L 1806 297 L 1806 300 L 1802 303 L 1800 308 L 1792 315 L 1791 315 L 1788 319 L 1784 319 L 1778 324 L 1772 324 L 1771 325 L 1758 325 L 1757 324 L 1751 324 L 1748 320 L 1741 319 L 1739 316 L 1727 305 L 1727 303 L 1725 299 L 1721 294 L 1721 265 L 1722 263 L 1725 261 L 1728 255 L 1728 253 L 1730 252 L 1736 245 L 1738 245 L 1745 239 L 1754 238 Z M 1488 190 L 1486 191 L 1484 194 L 1484 230 L 1486 232 L 1491 233 L 1492 234 L 1529 234 L 1530 235 L 1530 365 L 1532 368 L 1534 368 L 1535 369 L 1570 369 L 1571 368 L 1573 368 L 1577 363 L 1577 239 L 1578 238 L 1578 236 L 1580 234 L 1614 234 L 1615 233 L 1619 233 L 1621 230 L 1621 194 L 1618 190 L 1616 190 L 1615 189 L 1491 189 L 1490 190 Z M 1303 191 L 1301 195 L 1301 364 L 1302 366 L 1305 368 L 1309 368 L 1310 369 L 1411 369 L 1416 367 L 1418 364 L 1418 329 L 1416 326 L 1411 324 L 1351 324 L 1350 323 L 1350 303 L 1352 299 L 1406 299 L 1408 298 L 1409 296 L 1409 258 L 1406 254 L 1352 254 L 1350 252 L 1350 236 L 1352 234 L 1412 234 L 1414 233 L 1416 229 L 1416 197 L 1415 196 L 1415 192 L 1412 189 L 1308 189 Z M 1091 191 L 1090 193 L 1090 199 L 1089 200 L 1089 206 L 1090 207 L 1090 227 L 1089 228 L 1089 359 L 1090 360 L 1090 366 L 1091 367 L 1098 368 L 1099 369 L 1130 369 L 1131 368 L 1135 368 L 1137 367 L 1138 365 L 1138 317 L 1140 314 L 1152 314 L 1158 318 L 1161 327 L 1165 329 L 1166 336 L 1171 340 L 1172 347 L 1177 352 L 1178 357 L 1182 361 L 1184 366 L 1186 368 L 1191 368 L 1192 369 L 1229 369 L 1230 368 L 1236 367 L 1237 366 L 1237 363 L 1233 359 L 1233 356 L 1231 351 L 1227 347 L 1227 344 L 1224 339 L 1222 338 L 1221 333 L 1216 327 L 1214 320 L 1210 317 L 1210 315 L 1207 308 L 1204 306 L 1204 300 L 1206 298 L 1209 297 L 1210 294 L 1215 290 L 1215 288 L 1220 284 L 1222 276 L 1226 272 L 1226 269 L 1227 268 L 1227 235 L 1226 234 L 1225 229 L 1221 224 L 1220 219 L 1216 215 L 1214 211 L 1209 206 L 1208 206 L 1206 203 L 1200 200 L 1196 196 L 1187 194 L 1184 191 L 1177 190 L 1176 189 L 1096 189 L 1093 191 Z M 1140 234 L 1169 234 L 1171 237 L 1173 237 L 1177 239 L 1179 242 L 1182 244 L 1183 246 L 1183 254 L 1182 255 L 1182 258 L 1177 262 L 1177 264 L 1176 265 L 1174 265 L 1173 266 L 1165 266 L 1164 267 L 1145 266 L 1144 267 L 1141 267 L 1138 264 L 1138 237 Z M 886 189 L 883 192 L 883 366 L 885 368 L 887 368 L 888 369 L 968 369 L 969 368 L 981 368 L 982 367 L 984 367 L 988 363 L 991 363 L 996 361 L 999 357 L 1003 356 L 1004 353 L 1008 351 L 1009 347 L 1014 343 L 1015 338 L 1020 331 L 1020 327 L 1021 326 L 1021 297 L 1020 296 L 1020 292 L 1016 287 L 1014 280 L 1009 276 L 1009 267 L 1010 266 L 1010 264 L 1013 262 L 1014 260 L 1014 256 L 1015 255 L 1015 233 L 1014 232 L 1014 227 L 1010 223 L 1008 215 L 1004 212 L 1003 208 L 998 205 L 998 203 L 996 201 L 993 201 L 989 196 L 981 194 L 976 190 L 971 190 L 970 189 Z M 930 300 L 933 298 L 970 298 L 972 300 L 973 303 L 975 303 L 977 305 L 977 317 L 975 319 L 972 320 L 970 324 L 932 324 L 930 322 Z M 930 240 L 933 234 L 964 234 L 967 238 L 969 238 L 971 240 L 971 249 L 968 253 L 966 253 L 965 254 L 933 254 L 930 252 Z M 757 189 L 753 192 L 753 196 L 752 197 L 752 363 L 753 364 L 753 366 L 755 368 L 757 368 L 758 369 L 793 369 L 797 367 L 797 365 L 798 364 L 798 197 L 797 196 L 797 192 L 794 189 Z M 568 191 L 566 193 L 566 365 L 570 368 L 574 368 L 575 369 L 676 369 L 680 367 L 682 364 L 682 329 L 679 325 L 676 325 L 675 324 L 616 324 L 615 323 L 615 197 L 614 196 L 614 192 L 608 189 L 573 189 Z M 231 126 L 225 127 L 223 130 L 220 130 L 212 136 L 208 137 L 207 139 L 203 140 L 200 143 L 198 143 L 189 149 L 186 150 L 184 152 L 180 153 L 178 156 L 175 156 L 167 162 L 163 163 L 162 165 L 158 166 L 155 169 L 153 169 L 149 172 L 146 173 L 145 175 L 143 175 L 139 178 L 135 179 L 132 182 L 130 182 L 122 188 L 118 189 L 110 195 L 108 195 L 106 197 L 102 198 L 100 201 L 96 202 L 87 208 L 85 208 L 82 211 L 80 211 L 77 214 L 73 215 L 70 218 L 68 218 L 61 223 L 57 224 L 54 227 L 52 227 L 44 233 L 40 234 L 32 240 L 30 240 L 28 242 L 23 244 L 22 246 L 20 246 L 16 249 L 12 250 L 9 253 L 7 253 L 2 258 L 2 262 L 4 265 L 4 276 L 5 277 L 5 280 L 7 282 L 7 288 L 8 289 L 8 293 L 10 295 L 11 303 L 14 307 L 14 312 L 17 316 L 17 319 L 20 323 L 20 326 L 23 330 L 24 335 L 26 336 L 27 340 L 30 343 L 30 346 L 32 348 L 38 348 L 42 345 L 46 344 L 47 342 L 51 341 L 59 335 L 63 334 L 64 332 L 66 332 L 71 328 L 73 328 L 75 326 L 80 324 L 81 322 L 83 322 L 87 319 L 91 318 L 92 316 L 96 315 L 104 309 L 108 308 L 109 306 L 111 306 L 120 300 L 124 299 L 126 296 L 129 296 L 132 293 L 136 292 L 139 289 L 141 289 L 149 283 L 153 282 L 154 280 L 156 280 L 165 274 L 169 273 L 171 270 L 174 270 L 177 267 L 179 267 L 182 264 L 186 263 L 187 261 L 191 260 L 194 257 L 196 257 L 200 254 L 202 254 L 205 251 L 208 250 L 212 247 L 214 247 L 217 244 L 219 244 L 227 238 L 230 238 L 230 235 L 231 234 Z M 230 0 L 213 0 L 212 2 L 208 2 L 203 4 L 190 4 L 184 7 L 177 7 L 176 8 L 173 8 L 171 10 L 162 11 L 160 13 L 153 14 L 149 17 L 145 17 L 142 20 L 139 20 L 135 23 L 130 24 L 129 26 L 124 27 L 122 29 L 118 30 L 115 33 L 113 33 L 110 36 L 102 40 L 95 46 L 92 47 L 91 49 L 86 52 L 71 66 L 70 66 L 70 67 L 66 70 L 66 71 L 59 78 L 59 79 L 56 81 L 49 91 L 47 92 L 46 95 L 40 102 L 36 110 L 34 111 L 33 115 L 27 123 L 27 126 L 24 129 L 23 134 L 21 135 L 20 141 L 17 145 L 17 148 L 14 152 L 13 159 L 11 161 L 10 169 L 8 171 L 7 182 L 5 184 L 5 186 L 4 187 L 4 199 L 3 200 L 2 205 L 3 206 L 10 205 L 13 202 L 15 202 L 17 201 L 18 199 L 20 199 L 29 193 L 33 192 L 35 189 L 38 189 L 41 186 L 43 186 L 46 183 L 50 182 L 51 180 L 55 179 L 58 176 L 60 176 L 68 170 L 70 170 L 74 167 L 78 166 L 81 163 L 83 163 L 91 157 L 95 156 L 96 154 L 98 154 L 103 150 L 105 150 L 107 148 L 111 147 L 113 144 L 116 144 L 119 141 L 123 140 L 126 137 L 128 137 L 129 135 L 133 134 L 136 131 L 140 130 L 141 128 L 143 128 L 152 122 L 156 121 L 159 118 L 161 118 L 169 112 L 173 111 L 174 109 L 176 109 L 181 105 L 183 105 L 187 102 L 190 101 L 191 99 L 193 99 L 197 96 L 201 95 L 204 92 L 206 92 L 214 86 L 218 85 L 219 83 L 223 82 L 226 79 L 231 78 L 231 6 L 230 5 Z" fill="#1b8360" fill-rule="evenodd"/>
<path d="M 238 447 L 232 447 L 232 550 L 231 551 L 232 555 L 234 555 L 235 553 L 237 552 L 245 544 L 245 543 L 247 542 L 248 540 L 250 539 L 258 531 L 258 530 L 260 529 L 261 527 L 263 526 L 300 489 L 301 487 L 301 484 L 300 483 L 297 482 L 285 474 L 281 473 L 278 470 L 274 469 L 273 467 L 269 466 L 261 460 L 258 460 L 256 457 L 252 456 L 250 454 L 247 453 Z M 232 289 L 232 391 L 231 392 L 231 396 L 234 397 L 235 399 L 237 399 L 246 405 L 251 407 L 253 409 L 255 409 L 258 412 L 262 413 L 263 415 L 267 416 L 275 422 L 278 422 L 280 425 L 282 425 L 291 431 L 295 432 L 303 438 L 307 439 L 308 441 L 310 441 L 319 447 L 323 448 L 331 454 L 335 454 L 335 453 L 337 452 L 345 444 L 345 443 L 347 442 L 348 440 L 350 439 L 358 431 L 358 430 L 360 429 L 361 427 L 363 426 L 371 418 L 371 417 L 373 416 L 374 414 L 376 413 L 377 411 L 379 410 L 384 405 L 384 404 L 386 403 L 387 401 L 389 400 L 390 398 L 400 389 L 402 386 L 402 383 L 401 383 L 397 379 L 394 379 L 392 376 L 390 376 L 381 370 L 378 369 L 376 367 L 372 366 L 369 363 L 367 363 L 359 357 L 355 356 L 354 354 L 349 353 L 347 350 L 345 350 L 341 347 L 339 347 L 331 341 L 327 340 L 324 337 L 322 337 L 314 331 L 310 330 L 309 328 L 307 328 L 298 322 L 294 321 L 291 318 L 287 317 L 286 315 L 282 314 L 279 311 L 277 311 L 269 305 L 267 305 L 258 299 L 255 298 L 253 296 L 249 295 L 241 289 L 239 289 L 238 288 L 233 288 Z M 232 127 L 232 237 L 233 238 L 235 238 L 238 241 L 240 241 L 243 244 L 246 244 L 248 247 L 250 247 L 259 253 L 263 254 L 264 256 L 268 257 L 271 260 L 275 261 L 276 263 L 280 264 L 288 270 L 291 270 L 292 272 L 297 274 L 304 279 L 308 280 L 309 282 L 313 283 L 316 286 L 320 287 L 321 289 L 325 290 L 333 296 L 336 296 L 339 299 L 342 300 L 344 302 L 346 302 L 349 305 L 353 306 L 354 308 L 358 309 L 361 312 L 363 312 L 371 318 L 373 318 L 377 321 L 381 322 L 382 324 L 387 326 L 389 328 L 391 328 L 394 331 L 398 332 L 399 334 L 403 335 L 411 341 L 415 342 L 424 348 L 429 348 L 431 347 L 432 343 L 435 340 L 435 338 L 442 326 L 442 323 L 445 319 L 445 315 L 448 311 L 448 307 L 451 303 L 451 298 L 455 288 L 455 282 L 457 280 L 457 277 L 458 276 L 458 265 L 460 262 L 460 258 L 455 253 L 453 253 L 450 250 L 446 249 L 445 247 L 443 247 L 434 241 L 430 240 L 427 237 L 425 237 L 422 234 L 420 234 L 417 231 L 413 230 L 410 227 L 408 227 L 405 224 L 401 223 L 389 215 L 385 214 L 382 211 L 380 211 L 372 205 L 368 204 L 360 198 L 358 198 L 354 195 L 352 195 L 349 192 L 346 191 L 342 188 L 340 188 L 337 185 L 335 185 L 327 179 L 323 178 L 322 176 L 318 175 L 310 169 L 307 169 L 304 166 L 301 165 L 297 162 L 295 162 L 292 159 L 290 159 L 282 153 L 278 152 L 276 150 L 268 146 L 265 143 L 262 143 L 259 140 L 256 139 L 254 137 L 252 137 L 249 134 L 245 133 L 242 130 L 239 130 L 237 127 Z M 231 0 L 231 5 L 232 6 L 232 76 L 234 79 L 236 79 L 239 82 L 243 83 L 244 85 L 248 86 L 256 92 L 260 93 L 261 95 L 263 95 L 267 98 L 271 99 L 272 101 L 277 103 L 279 105 L 281 105 L 284 108 L 288 109 L 289 111 L 293 112 L 301 118 L 304 118 L 306 121 L 309 121 L 317 127 L 321 128 L 329 134 L 333 135 L 334 137 L 336 137 L 345 143 L 349 144 L 352 147 L 355 148 L 357 150 L 359 150 L 362 153 L 366 154 L 367 156 L 371 157 L 374 160 L 378 161 L 379 163 L 381 163 L 390 169 L 394 170 L 396 173 L 398 173 L 402 176 L 404 176 L 407 179 L 411 180 L 412 182 L 416 183 L 424 189 L 427 189 L 430 192 L 433 193 L 440 198 L 444 199 L 452 205 L 454 205 L 455 206 L 459 206 L 460 205 L 460 203 L 458 199 L 458 188 L 455 182 L 454 171 L 452 169 L 451 161 L 448 157 L 448 152 L 445 149 L 445 145 L 442 141 L 442 138 L 439 134 L 439 132 L 435 126 L 435 124 L 432 120 L 432 118 L 429 115 L 429 113 L 426 110 L 422 102 L 419 100 L 419 98 L 409 86 L 406 81 L 403 79 L 403 78 L 392 67 L 392 66 L 391 66 L 383 58 L 378 55 L 376 52 L 364 43 L 361 42 L 360 40 L 352 36 L 349 33 L 347 33 L 344 30 L 342 30 L 330 23 L 327 23 L 324 20 L 320 20 L 317 17 L 313 17 L 309 14 L 305 14 L 304 13 L 302 13 L 300 11 L 291 10 L 289 8 L 286 8 L 285 7 L 278 7 L 272 4 L 259 4 L 254 2 L 250 2 L 249 0 Z" fill="#44ab6b" fill-rule="evenodd"/>
</svg>