<svg xmlns="http://www.w3.org/2000/svg" width="1745" height="1256" viewBox="0 0 1745 1256">
<path d="M 1596 1069 L 1593 1073 L 1593 1243 L 1596 1247 L 1601 1247 L 1602 1248 L 1633 1248 L 1634 1247 L 1638 1247 L 1640 1246 L 1642 1243 L 1642 1196 L 1644 1193 L 1656 1193 L 1659 1197 L 1663 1200 L 1664 1202 L 1664 1206 L 1669 1211 L 1671 1218 L 1674 1220 L 1677 1229 L 1681 1232 L 1681 1235 L 1683 1239 L 1687 1242 L 1687 1244 L 1689 1247 L 1694 1247 L 1695 1248 L 1733 1248 L 1738 1246 L 1739 1242 L 1737 1238 L 1737 1235 L 1736 1233 L 1732 1230 L 1730 1223 L 1726 1220 L 1725 1214 L 1723 1210 L 1720 1208 L 1718 1200 L 1714 1197 L 1712 1190 L 1707 1184 L 1707 1179 L 1709 1177 L 1712 1176 L 1714 1172 L 1718 1170 L 1720 1165 L 1723 1163 L 1725 1159 L 1726 1152 L 1729 1150 L 1730 1148 L 1730 1144 L 1731 1143 L 1731 1118 L 1730 1117 L 1730 1113 L 1726 1108 L 1725 1101 L 1724 1099 L 1720 1096 L 1719 1092 L 1717 1091 L 1708 1081 L 1704 1080 L 1701 1076 L 1696 1074 L 1690 1073 L 1687 1070 L 1680 1069 L 1679 1068 L 1598 1068 Z M 1643 1114 L 1644 1113 L 1671 1113 L 1675 1116 L 1679 1117 L 1682 1119 L 1683 1123 L 1685 1124 L 1687 1127 L 1687 1133 L 1686 1135 L 1684 1136 L 1681 1142 L 1679 1144 L 1676 1144 L 1675 1145 L 1645 1146 L 1642 1143 L 1642 1118 L 1643 1117 Z M 1372 1070 L 1370 1073 L 1370 1193 L 1371 1194 L 1371 1199 L 1375 1205 L 1375 1210 L 1376 1211 L 1377 1216 L 1381 1219 L 1382 1223 L 1387 1228 L 1387 1229 L 1390 1231 L 1393 1235 L 1397 1236 L 1401 1241 L 1407 1242 L 1413 1247 L 1424 1248 L 1426 1250 L 1431 1251 L 1432 1252 L 1438 1252 L 1439 1253 L 1454 1252 L 1455 1251 L 1457 1251 L 1461 1248 L 1472 1247 L 1476 1245 L 1478 1242 L 1484 1241 L 1489 1236 L 1494 1234 L 1494 1233 L 1499 1228 L 1500 1228 L 1502 1223 L 1505 1221 L 1507 1218 L 1508 1212 L 1511 1209 L 1513 1204 L 1513 1193 L 1514 1192 L 1514 1076 L 1513 1075 L 1513 1071 L 1510 1068 L 1473 1068 L 1469 1071 L 1468 1073 L 1468 1121 L 1467 1122 L 1467 1186 L 1466 1187 L 1466 1190 L 1465 1191 L 1464 1196 L 1462 1198 L 1459 1199 L 1456 1203 L 1451 1203 L 1450 1204 L 1436 1204 L 1435 1203 L 1431 1203 L 1429 1200 L 1426 1199 L 1424 1197 L 1422 1197 L 1420 1195 L 1420 1192 L 1419 1191 L 1419 1074 L 1418 1073 L 1418 1071 L 1412 1068 L 1377 1068 Z M 1188 1068 L 1187 1069 L 1184 1069 L 1178 1073 L 1170 1075 L 1164 1080 L 1159 1081 L 1156 1085 L 1152 1086 L 1151 1088 L 1139 1099 L 1139 1101 L 1134 1105 L 1133 1109 L 1129 1112 L 1128 1118 L 1123 1124 L 1122 1134 L 1119 1138 L 1118 1143 L 1117 1144 L 1117 1173 L 1118 1174 L 1118 1178 L 1122 1184 L 1123 1194 L 1128 1200 L 1129 1206 L 1133 1209 L 1135 1214 L 1141 1220 L 1141 1222 L 1142 1223 L 1144 1223 L 1146 1226 L 1156 1235 L 1161 1236 L 1164 1240 L 1171 1242 L 1178 1247 L 1189 1248 L 1190 1249 L 1192 1249 L 1194 1251 L 1202 1252 L 1203 1253 L 1216 1253 L 1217 1252 L 1222 1252 L 1223 1251 L 1226 1251 L 1230 1248 L 1242 1247 L 1246 1245 L 1248 1242 L 1254 1241 L 1258 1237 L 1262 1235 L 1264 1235 L 1268 1230 L 1271 1229 L 1272 1227 L 1278 1222 L 1278 1220 L 1283 1216 L 1284 1213 L 1287 1211 L 1289 1208 L 1290 1202 L 1295 1197 L 1296 1188 L 1301 1180 L 1301 1171 L 1302 1170 L 1302 1147 L 1301 1146 L 1301 1137 L 1296 1130 L 1296 1124 L 1294 1121 L 1294 1119 L 1290 1115 L 1289 1110 L 1285 1106 L 1282 1100 L 1281 1100 L 1278 1096 L 1270 1089 L 1269 1087 L 1266 1086 L 1261 1081 L 1254 1079 L 1253 1077 L 1250 1075 L 1244 1074 L 1238 1070 L 1232 1069 L 1231 1068 Z M 1208 1113 L 1211 1113 L 1212 1114 L 1215 1114 L 1217 1116 L 1232 1119 L 1235 1123 L 1239 1124 L 1241 1128 L 1246 1132 L 1247 1136 L 1251 1140 L 1251 1142 L 1252 1143 L 1252 1151 L 1253 1152 L 1253 1166 L 1252 1167 L 1252 1175 L 1251 1176 L 1251 1179 L 1247 1182 L 1245 1187 L 1237 1194 L 1236 1194 L 1233 1198 L 1229 1198 L 1223 1203 L 1217 1203 L 1216 1204 L 1203 1204 L 1202 1203 L 1196 1203 L 1193 1199 L 1186 1198 L 1184 1195 L 1172 1184 L 1172 1182 L 1170 1178 L 1166 1173 L 1166 1144 L 1167 1142 L 1170 1140 L 1173 1134 L 1173 1132 L 1175 1131 L 1181 1124 L 1183 1124 L 1190 1118 L 1199 1117 Z M 933 1069 L 931 1070 L 929 1073 L 929 1109 L 931 1111 L 936 1112 L 937 1113 L 974 1113 L 975 1114 L 975 1244 L 977 1247 L 979 1247 L 980 1248 L 1015 1248 L 1016 1247 L 1018 1247 L 1022 1242 L 1022 1118 L 1023 1117 L 1023 1115 L 1025 1113 L 1059 1113 L 1060 1112 L 1064 1112 L 1066 1109 L 1066 1073 L 1063 1069 L 1061 1069 L 1060 1068 L 936 1068 L 935 1069 Z M 748 1070 L 746 1074 L 746 1243 L 747 1245 L 750 1247 L 754 1247 L 755 1248 L 856 1248 L 861 1246 L 863 1243 L 863 1208 L 861 1205 L 856 1203 L 796 1203 L 795 1202 L 795 1182 L 797 1178 L 851 1178 L 853 1177 L 854 1175 L 854 1137 L 851 1133 L 797 1133 L 795 1131 L 795 1115 L 797 1113 L 857 1113 L 859 1112 L 861 1108 L 861 1076 L 860 1075 L 860 1071 L 857 1068 L 753 1068 Z M 536 1070 L 535 1072 L 535 1078 L 534 1079 L 534 1085 L 535 1086 L 535 1106 L 534 1107 L 534 1238 L 535 1239 L 535 1245 L 536 1246 L 543 1247 L 544 1248 L 575 1248 L 576 1247 L 580 1247 L 582 1246 L 583 1244 L 583 1196 L 585 1193 L 597 1193 L 603 1197 L 606 1206 L 610 1208 L 611 1215 L 616 1219 L 617 1226 L 622 1231 L 623 1236 L 627 1240 L 629 1245 L 631 1247 L 636 1247 L 637 1248 L 674 1248 L 675 1247 L 681 1246 L 682 1245 L 682 1242 L 678 1238 L 678 1235 L 676 1230 L 672 1226 L 672 1223 L 669 1218 L 667 1217 L 666 1212 L 661 1206 L 659 1199 L 655 1196 L 655 1194 L 652 1187 L 649 1185 L 649 1179 L 651 1177 L 654 1176 L 655 1173 L 660 1169 L 660 1167 L 665 1163 L 667 1155 L 671 1151 L 671 1148 L 672 1147 L 672 1114 L 671 1113 L 670 1108 L 666 1103 L 665 1098 L 661 1094 L 659 1090 L 654 1085 L 653 1085 L 651 1082 L 645 1079 L 641 1075 L 632 1073 L 629 1070 L 622 1069 L 621 1068 L 541 1068 L 538 1070 Z M 585 1113 L 614 1113 L 616 1116 L 618 1116 L 622 1118 L 624 1121 L 627 1123 L 628 1125 L 628 1133 L 627 1134 L 627 1137 L 622 1141 L 622 1143 L 621 1144 L 619 1144 L 618 1145 L 610 1145 L 609 1146 L 590 1145 L 589 1146 L 586 1146 L 583 1143 L 583 1116 Z M 331 1068 L 328 1071 L 328 1245 L 330 1247 L 332 1247 L 333 1248 L 413 1248 L 414 1247 L 426 1247 L 427 1246 L 429 1246 L 433 1242 L 436 1242 L 441 1240 L 444 1236 L 448 1235 L 449 1232 L 453 1230 L 454 1226 L 459 1222 L 460 1217 L 465 1210 L 465 1206 L 466 1205 L 466 1176 L 465 1175 L 465 1171 L 461 1166 L 459 1159 L 454 1155 L 454 1146 L 455 1145 L 455 1143 L 458 1141 L 459 1139 L 459 1135 L 460 1134 L 460 1112 L 459 1111 L 459 1106 L 455 1102 L 453 1094 L 449 1091 L 448 1087 L 443 1084 L 443 1082 L 441 1080 L 438 1080 L 434 1075 L 426 1073 L 421 1069 L 416 1069 L 415 1068 Z M 375 1179 L 378 1177 L 415 1177 L 417 1179 L 418 1182 L 420 1182 L 422 1184 L 422 1196 L 420 1198 L 417 1199 L 415 1203 L 377 1203 L 375 1201 Z M 375 1119 L 378 1113 L 409 1113 L 412 1117 L 414 1117 L 416 1119 L 416 1128 L 413 1132 L 411 1132 L 410 1133 L 378 1133 L 375 1131 Z M 202 1068 L 198 1071 L 198 1075 L 197 1076 L 197 1242 L 198 1243 L 198 1245 L 200 1247 L 202 1247 L 203 1248 L 238 1248 L 242 1246 L 242 1244 L 243 1243 L 243 1076 L 242 1075 L 242 1071 L 239 1068 Z M 13 1070 L 11 1072 L 11 1244 L 15 1247 L 19 1247 L 20 1248 L 121 1248 L 125 1246 L 127 1243 L 127 1208 L 124 1204 L 121 1204 L 120 1203 L 61 1203 L 60 1202 L 60 1076 L 59 1075 L 59 1071 L 53 1068 L 18 1068 Z M 874 808 L 866 808 L 864 809 L 861 813 L 858 813 L 854 815 L 850 819 L 848 819 L 844 821 L 842 824 L 835 826 L 832 830 L 827 831 L 823 833 L 820 837 L 816 837 L 808 843 L 805 843 L 800 848 L 798 848 L 792 851 L 790 854 L 783 856 L 780 860 L 773 862 L 769 866 L 764 867 L 761 871 L 756 872 L 752 874 L 749 878 L 746 878 L 741 881 L 741 885 L 743 887 L 744 891 L 746 893 L 748 893 L 750 895 L 750 897 L 752 899 L 754 899 L 756 901 L 756 903 L 760 905 L 762 909 L 764 911 L 766 911 L 768 915 L 772 917 L 774 921 L 778 923 L 780 927 L 784 929 L 786 933 L 790 935 L 792 939 L 797 942 L 797 944 L 799 946 L 801 946 L 803 948 L 803 950 L 805 952 L 807 952 L 809 956 L 811 958 L 813 958 L 815 962 L 817 964 L 819 964 L 821 968 L 825 970 L 827 974 L 831 976 L 833 980 L 837 982 L 839 986 L 844 989 L 844 991 L 846 993 L 849 994 L 850 995 L 850 997 L 852 999 L 854 999 L 856 1001 L 856 1003 L 858 1005 L 860 1005 L 864 1011 L 866 1011 L 867 1012 L 870 1012 L 870 1010 L 869 1009 L 869 817 L 870 816 L 870 814 L 872 812 L 874 812 Z M 874 519 L 864 519 L 862 520 L 858 524 L 852 526 L 849 530 L 846 530 L 842 532 L 838 536 L 831 538 L 826 543 L 823 543 L 817 548 L 810 550 L 807 554 L 804 554 L 800 556 L 798 559 L 790 562 L 786 566 L 781 567 L 777 571 L 769 574 L 767 577 L 760 579 L 755 584 L 752 584 L 746 589 L 739 591 L 736 595 L 729 597 L 726 601 L 720 602 L 715 607 L 712 607 L 704 613 L 698 615 L 695 619 L 692 619 L 687 621 L 684 625 L 678 626 L 675 630 L 670 631 L 665 636 L 658 638 L 655 642 L 647 644 L 644 648 L 639 649 L 633 654 L 631 654 L 627 656 L 624 659 L 620 661 L 618 661 L 614 666 L 607 667 L 604 671 L 597 673 L 597 674 L 593 677 L 587 679 L 584 683 L 579 684 L 575 686 L 573 689 L 566 691 L 563 695 L 558 697 L 557 699 L 558 703 L 562 706 L 562 708 L 568 713 L 569 716 L 572 717 L 574 721 L 578 723 L 580 727 L 584 729 L 587 734 L 589 734 L 591 736 L 591 738 L 593 740 L 595 740 L 597 742 L 597 744 L 599 746 L 601 746 L 603 750 L 607 752 L 609 754 L 609 756 L 613 758 L 615 762 L 619 764 L 621 768 L 625 770 L 627 774 L 631 776 L 634 781 L 636 781 L 638 783 L 639 786 L 644 789 L 644 791 L 646 793 L 648 793 L 650 797 L 652 799 L 654 799 L 656 801 L 656 803 L 660 805 L 662 807 L 662 809 L 664 811 L 666 811 L 668 815 L 672 817 L 674 821 L 678 823 L 681 827 L 687 827 L 689 826 L 691 823 L 699 821 L 702 817 L 709 815 L 714 810 L 717 810 L 722 807 L 723 805 L 728 804 L 733 799 L 740 797 L 743 793 L 746 793 L 750 791 L 754 787 L 759 786 L 762 784 L 764 781 L 770 780 L 773 776 L 780 774 L 785 769 L 789 769 L 792 767 L 794 764 L 800 762 L 803 760 L 804 758 L 811 756 L 814 752 L 817 752 L 822 750 L 825 746 L 830 745 L 836 740 L 842 738 L 846 734 L 851 733 L 855 728 L 862 727 L 866 722 L 869 722 L 869 528 L 873 523 L 875 523 L 875 520 Z M 871 229 L 866 228 L 865 230 L 858 232 L 855 236 L 850 237 L 844 242 L 839 243 L 835 247 L 831 249 L 829 249 L 825 253 L 817 256 L 814 260 L 810 260 L 806 262 L 803 266 L 800 266 L 794 271 L 787 273 L 784 277 L 777 279 L 774 283 L 768 284 L 763 289 L 758 290 L 754 294 L 746 297 L 743 301 L 740 301 L 735 303 L 732 307 L 729 307 L 725 309 L 721 313 L 716 314 L 713 318 L 706 320 L 702 324 L 694 327 L 692 330 L 685 332 L 679 337 L 676 337 L 672 342 L 668 342 L 666 344 L 664 344 L 661 348 L 654 350 L 650 354 L 645 355 L 642 359 L 635 361 L 632 365 L 630 365 L 623 368 L 621 371 L 613 374 L 609 378 L 606 378 L 600 383 L 593 385 L 590 389 L 587 389 L 583 391 L 578 396 L 575 396 L 569 401 L 564 402 L 561 406 L 553 408 L 549 413 L 545 413 L 539 418 L 535 419 L 530 422 L 529 424 L 522 426 L 519 430 L 512 432 L 509 436 L 504 437 L 498 442 L 493 443 L 488 448 L 481 450 L 478 454 L 472 455 L 467 460 L 464 460 L 459 463 L 457 466 L 452 470 L 453 477 L 455 480 L 455 483 L 456 484 L 457 505 L 458 506 L 458 509 L 462 515 L 463 531 L 468 540 L 469 552 L 472 555 L 474 559 L 474 566 L 476 570 L 479 573 L 480 580 L 482 585 L 485 587 L 485 589 L 486 590 L 486 595 L 487 597 L 491 600 L 492 608 L 497 613 L 497 616 L 499 621 L 503 624 L 503 627 L 505 632 L 512 635 L 515 635 L 523 632 L 526 628 L 532 627 L 537 622 L 542 621 L 546 617 L 550 615 L 552 615 L 555 611 L 561 610 L 563 609 L 566 605 L 574 603 L 577 599 L 581 598 L 588 593 L 594 591 L 597 587 L 603 586 L 607 581 L 610 581 L 615 579 L 617 576 L 623 574 L 629 569 L 634 568 L 637 564 L 642 563 L 646 561 L 649 557 L 653 557 L 659 552 L 665 550 L 669 546 L 675 544 L 678 540 L 681 540 L 686 538 L 689 534 L 695 533 L 700 528 L 705 527 L 709 523 L 717 520 L 720 516 L 723 516 L 727 514 L 729 511 L 736 509 L 742 504 L 745 504 L 749 499 L 752 499 L 757 497 L 760 493 L 765 492 L 769 490 L 771 487 L 776 486 L 780 482 L 788 479 L 790 476 L 798 473 L 801 469 L 804 469 L 809 467 L 811 464 L 818 462 L 820 459 L 828 456 L 831 452 L 839 450 L 843 445 L 847 445 L 853 440 L 859 438 L 861 435 L 866 433 L 869 433 L 869 239 L 870 238 Z M 868 0 L 860 0 L 859 2 L 838 2 L 837 3 L 831 3 L 824 6 L 818 6 L 817 7 L 801 7 L 800 8 L 794 8 L 793 9 L 790 9 L 788 11 L 783 13 L 771 13 L 770 14 L 766 14 L 761 18 L 757 18 L 756 19 L 748 19 L 747 20 L 745 20 L 740 24 L 730 25 L 726 27 L 723 30 L 714 31 L 708 36 L 701 37 L 697 39 L 695 42 L 687 43 L 684 47 L 675 49 L 672 53 L 667 54 L 663 56 L 661 59 L 659 59 L 652 62 L 649 66 L 644 67 L 641 71 L 639 71 L 635 73 L 632 77 L 627 79 L 625 82 L 618 85 L 614 90 L 612 90 L 608 95 L 604 96 L 602 100 L 599 101 L 594 106 L 588 110 L 588 111 L 584 115 L 583 115 L 582 117 L 579 119 L 566 133 L 564 134 L 564 135 L 556 143 L 556 144 L 550 149 L 550 151 L 545 155 L 544 159 L 540 161 L 539 165 L 534 169 L 532 174 L 527 179 L 526 183 L 522 185 L 522 187 L 520 191 L 516 195 L 515 200 L 510 204 L 510 206 L 508 210 L 504 215 L 503 220 L 498 226 L 497 231 L 493 235 L 492 237 L 492 241 L 487 247 L 485 257 L 481 262 L 479 272 L 477 273 L 475 276 L 475 278 L 474 279 L 474 286 L 473 287 L 473 289 L 470 292 L 469 297 L 468 298 L 468 306 L 467 308 L 465 309 L 463 313 L 462 330 L 459 334 L 457 339 L 456 362 L 453 369 L 454 376 L 464 375 L 469 373 L 472 369 L 475 369 L 479 367 L 483 363 L 488 362 L 492 358 L 498 356 L 503 351 L 509 350 L 512 346 L 519 344 L 525 339 L 528 339 L 533 334 L 540 332 L 543 328 L 551 326 L 554 322 L 561 320 L 564 316 L 569 315 L 573 311 L 580 309 L 583 305 L 592 302 L 595 298 L 598 298 L 604 293 L 611 291 L 614 287 L 617 287 L 623 284 L 625 281 L 633 278 L 635 275 L 642 273 L 644 270 L 651 268 L 655 263 L 659 263 L 663 261 L 666 257 L 669 257 L 673 255 L 677 251 L 682 250 L 685 246 L 693 244 L 696 240 L 703 238 L 706 234 L 713 232 L 719 227 L 722 227 L 726 222 L 729 222 L 734 220 L 737 216 L 740 216 L 744 214 L 748 210 L 753 209 L 758 204 L 765 202 L 767 199 L 774 197 L 777 193 L 779 192 L 783 192 L 786 190 L 788 187 L 794 185 L 797 181 L 800 181 L 805 179 L 808 175 L 813 174 L 819 169 L 824 168 L 828 164 L 836 161 L 839 157 L 845 156 L 849 151 L 856 150 L 859 146 L 864 145 L 867 142 L 870 142 L 870 138 L 869 137 L 869 4 L 868 3 Z" fill="#1b8360" fill-rule="evenodd"/>
<path d="M 877 812 L 872 813 L 870 817 L 870 1009 L 871 1011 L 875 1011 L 878 1007 L 881 1005 L 883 1002 L 887 999 L 889 996 L 893 993 L 895 990 L 899 987 L 910 975 L 913 973 L 913 971 L 914 970 L 916 970 L 918 968 L 919 965 L 920 964 L 922 964 L 924 961 L 928 958 L 931 954 L 934 952 L 936 949 L 940 946 L 942 943 L 946 940 L 948 937 L 951 935 L 954 931 L 966 920 L 966 918 L 967 917 L 969 917 L 971 914 L 975 911 L 992 893 L 995 891 L 995 889 L 998 885 L 998 881 L 993 878 L 991 878 L 986 873 L 979 871 L 976 867 L 971 866 L 967 862 L 960 860 L 957 856 L 949 854 L 946 850 L 938 847 L 934 843 L 929 842 L 927 839 L 923 837 L 920 837 L 917 833 L 908 830 L 906 827 L 898 824 L 894 820 L 889 819 L 886 815 L 881 813 L 878 813 Z M 870 528 L 870 722 L 873 722 L 878 727 L 884 728 L 887 732 L 894 734 L 899 739 L 904 740 L 910 745 L 914 746 L 918 750 L 923 752 L 926 752 L 928 756 L 935 758 L 939 762 L 941 762 L 945 764 L 951 769 L 955 769 L 958 773 L 962 775 L 965 775 L 970 780 L 975 781 L 979 785 L 987 788 L 991 792 L 997 793 L 1001 798 L 1007 799 L 1010 803 L 1015 804 L 1021 809 L 1027 811 L 1029 814 L 1033 816 L 1038 817 L 1041 821 L 1048 823 L 1050 826 L 1052 827 L 1058 827 L 1061 823 L 1063 823 L 1066 819 L 1078 808 L 1078 806 L 1079 805 L 1081 805 L 1084 801 L 1087 799 L 1089 796 L 1093 793 L 1104 781 L 1107 779 L 1107 777 L 1111 775 L 1113 773 L 1113 771 L 1114 770 L 1116 770 L 1118 767 L 1125 761 L 1125 759 L 1129 757 L 1131 754 L 1134 752 L 1136 749 L 1140 746 L 1142 743 L 1146 740 L 1162 723 L 1165 721 L 1166 718 L 1167 717 L 1169 717 L 1171 715 L 1172 712 L 1177 709 L 1177 707 L 1182 702 L 1182 698 L 1178 696 L 1174 691 L 1166 689 L 1163 685 L 1156 683 L 1154 680 L 1151 678 L 1148 678 L 1146 677 L 1144 674 L 1140 672 L 1137 672 L 1134 668 L 1129 666 L 1126 666 L 1123 662 L 1117 660 L 1111 655 L 1106 654 L 1104 651 L 1101 649 L 1095 648 L 1092 644 L 1085 642 L 1082 638 L 1075 636 L 1071 632 L 1065 630 L 1063 627 L 1059 625 L 1055 625 L 1051 620 L 1044 618 L 1042 615 L 1034 612 L 1030 608 L 1025 607 L 1020 602 L 1014 601 L 1011 597 L 1004 595 L 998 590 L 995 590 L 988 584 L 983 583 L 980 579 L 972 577 L 969 573 L 967 573 L 963 571 L 959 567 L 954 566 L 950 562 L 946 560 L 943 560 L 940 556 L 931 553 L 928 549 L 922 548 L 921 546 L 917 543 L 914 543 L 909 538 L 907 538 L 904 536 L 901 536 L 898 532 L 891 530 L 888 526 L 886 526 L 882 524 L 873 524 Z M 872 231 L 871 238 L 870 239 L 870 431 L 871 433 L 878 434 L 882 439 L 885 439 L 891 444 L 898 446 L 901 450 L 908 452 L 910 455 L 918 458 L 924 463 L 927 463 L 931 467 L 935 469 L 938 469 L 941 473 L 948 475 L 953 480 L 960 482 L 962 485 L 969 487 L 972 491 L 974 492 L 978 492 L 981 496 L 985 498 L 990 499 L 992 502 L 995 504 L 999 505 L 1002 507 L 1003 509 L 1010 511 L 1012 514 L 1016 516 L 1020 516 L 1024 521 L 1031 523 L 1033 526 L 1040 528 L 1045 533 L 1050 534 L 1053 538 L 1061 540 L 1064 544 L 1066 544 L 1072 547 L 1076 551 L 1081 552 L 1085 556 L 1092 558 L 1095 562 L 1101 563 L 1104 567 L 1112 570 L 1115 573 L 1119 575 L 1121 575 L 1123 578 L 1126 580 L 1132 581 L 1135 585 L 1140 587 L 1143 587 L 1146 591 L 1150 592 L 1158 598 L 1163 599 L 1166 603 L 1173 605 L 1176 609 L 1184 611 L 1187 615 L 1192 616 L 1196 620 L 1204 623 L 1208 627 L 1215 629 L 1218 633 L 1227 635 L 1234 632 L 1236 628 L 1236 624 L 1240 621 L 1243 612 L 1247 608 L 1249 600 L 1253 596 L 1254 587 L 1258 584 L 1260 573 L 1263 570 L 1265 565 L 1265 559 L 1270 551 L 1272 537 L 1276 531 L 1276 528 L 1277 527 L 1277 517 L 1278 516 L 1278 513 L 1281 510 L 1281 507 L 1282 506 L 1282 500 L 1283 499 L 1283 484 L 1287 474 L 1287 470 L 1281 464 L 1281 463 L 1276 460 L 1271 459 L 1268 455 L 1261 454 L 1259 450 L 1252 448 L 1248 444 L 1242 442 L 1238 438 L 1231 436 L 1228 432 L 1220 430 L 1217 426 L 1211 424 L 1207 420 L 1202 419 L 1198 415 L 1194 413 L 1191 413 L 1188 409 L 1179 406 L 1176 402 L 1171 401 L 1167 397 L 1160 395 L 1157 391 L 1152 389 L 1149 389 L 1145 384 L 1142 384 L 1138 382 L 1136 379 L 1131 378 L 1127 374 L 1123 372 L 1120 372 L 1115 367 L 1108 365 L 1105 361 L 1100 360 L 1094 355 L 1089 354 L 1086 350 L 1079 348 L 1075 344 L 1067 341 L 1065 338 L 1058 336 L 1056 333 L 1048 330 L 1046 327 L 1042 325 L 1037 324 L 1034 320 L 1027 318 L 1023 314 L 1017 312 L 1015 309 L 1011 307 L 1008 307 L 1003 302 L 997 301 L 994 297 L 986 294 L 982 290 L 977 289 L 973 285 L 966 283 L 963 279 L 958 278 L 952 273 L 946 271 L 940 266 L 937 266 L 932 261 L 926 260 L 923 256 L 915 253 L 911 249 L 906 248 L 902 244 L 895 242 L 892 238 L 884 236 L 883 234 L 879 231 Z M 870 0 L 870 137 L 871 138 L 871 140 L 872 140 L 876 145 L 879 145 L 883 149 L 887 151 L 890 151 L 893 155 L 902 158 L 904 161 L 910 163 L 915 168 L 921 169 L 924 173 L 929 175 L 932 175 L 935 179 L 942 181 L 945 185 L 951 187 L 957 192 L 961 192 L 966 197 L 973 199 L 976 203 L 981 204 L 987 209 L 989 209 L 993 211 L 995 214 L 999 216 L 1002 216 L 1007 221 L 1013 222 L 1016 226 L 1023 228 L 1024 230 L 1029 233 L 1033 234 L 1037 238 L 1044 240 L 1047 244 L 1054 246 L 1057 250 L 1063 251 L 1067 255 L 1071 257 L 1073 257 L 1080 263 L 1084 263 L 1089 268 L 1094 269 L 1099 274 L 1102 274 L 1108 279 L 1115 281 L 1118 285 L 1120 285 L 1123 287 L 1126 287 L 1128 291 L 1136 293 L 1139 297 L 1144 298 L 1148 302 L 1152 304 L 1155 304 L 1160 309 L 1167 311 L 1170 315 L 1177 317 L 1179 320 L 1186 322 L 1189 326 L 1196 328 L 1200 332 L 1204 334 L 1207 334 L 1210 338 L 1216 340 L 1222 345 L 1226 345 L 1228 348 L 1233 351 L 1237 351 L 1240 355 L 1246 358 L 1248 358 L 1251 362 L 1257 363 L 1262 368 L 1268 369 L 1269 371 L 1273 374 L 1275 374 L 1279 376 L 1285 376 L 1286 374 L 1286 368 L 1283 362 L 1283 346 L 1282 345 L 1282 338 L 1279 334 L 1277 329 L 1277 318 L 1276 317 L 1276 313 L 1272 307 L 1270 294 L 1266 289 L 1264 276 L 1263 274 L 1260 272 L 1258 261 L 1254 258 L 1253 249 L 1249 244 L 1247 237 L 1242 231 L 1240 224 L 1236 220 L 1235 214 L 1231 211 L 1229 204 L 1225 201 L 1224 197 L 1219 191 L 1217 187 L 1217 185 L 1213 183 L 1213 181 L 1211 177 L 1207 174 L 1207 172 L 1200 164 L 1200 162 L 1195 159 L 1194 155 L 1189 151 L 1188 148 L 1184 145 L 1184 144 L 1177 137 L 1177 136 L 1175 135 L 1169 127 L 1168 127 L 1162 120 L 1161 120 L 1154 113 L 1153 113 L 1150 109 L 1145 106 L 1141 101 L 1137 100 L 1135 96 L 1131 95 L 1129 91 L 1124 89 L 1121 85 L 1115 82 L 1111 78 L 1107 77 L 1104 73 L 1099 71 L 1095 67 L 1090 66 L 1087 62 L 1079 59 L 1077 56 L 1073 54 L 1068 53 L 1064 49 L 1056 47 L 1055 45 L 1052 43 L 1044 41 L 1040 37 L 1031 36 L 1025 31 L 1017 30 L 1012 26 L 1010 26 L 1009 25 L 999 24 L 996 21 L 991 19 L 983 19 L 982 18 L 978 18 L 975 15 L 973 14 L 969 14 L 968 13 L 956 13 L 946 8 L 915 6 L 912 4 L 902 3 L 901 2 L 875 2 L 874 0 Z" fill="#44ab6b" fill-rule="evenodd"/>
</svg>